<svg width="228" height="227" viewBox="0 0 228 227" fill="none" xmlns="http://www.w3.org/2000/svg">
<g filter="url(#filter0_f)">
<rect x="40.7336" y="40" width="146.495" height="146.495" rx="60" fill="#223898"/>
</g>
<rect x="24" y="21" width="146.495" height="146.495" rx="30" fill="white"/>
<path d="M51.7461 100.237C52.6403 100.237 53.7132 100.042 54.965 99.6505V103.456C53.6909 104.026 52.1261 104.311 50.2708 104.311C48.2255 104.311 46.7334 103.797 45.7945 102.769C44.8669 101.729 44.403 100.176 44.403 98.1081V89.0717H41.9553V86.909L44.7719 85.199L46.2472 81.2424H49.5164V85.2325H54.7638V89.0717H49.5164V98.1081C49.5164 98.8346 49.7175 99.3711 50.1199 99.7175C50.5334 100.064 51.0755 100.237 51.7461 100.237Z" fill="#3554DB"/>
<path d="M57.3631 101.578C57.3631 100.64 57.6146 99.9299 58.1175 99.4493C58.6205 98.9687 59.3525 98.7284 60.3137 98.7284C61.2414 98.7284 61.9567 98.9743 62.4597 99.4661C62.9738 99.9578 63.2309 100.662 63.2309 101.578C63.2309 102.461 62.9738 103.16 62.4597 103.674C61.9455 104.177 61.2302 104.429 60.3137 104.429C59.3749 104.429 58.6484 104.183 58.1343 103.691C57.6201 103.188 57.3631 102.484 57.3631 101.578Z" fill="#3554DB"/>
<path d="M82.0587 97.1693C82.0587 99.3822 81.2596 101.126 79.6613 102.4C78.0742 103.674 75.8612 104.311 73.0223 104.311C70.407 104.311 68.0934 103.819 66.0816 102.836V98.0075C67.7357 98.7452 69.1328 99.2649 70.2729 99.5667C71.424 99.8684 72.4747 100.019 73.4247 100.019C74.5647 100.019 75.4365 99.8014 76.04 99.3655C76.6547 98.9296 76.9621 98.2813 76.9621 97.4207C76.9621 96.9401 76.828 96.5154 76.5597 96.1466C76.2915 95.7666 75.8947 95.4033 75.3694 95.0569C74.8553 94.7104 73.7991 94.1571 72.2008 93.3971C70.7032 92.693 69.5799 92.0168 68.8311 91.3685C68.0822 90.7203 67.4843 89.9659 67.0372 89.1053C66.5901 88.2447 66.3666 87.2387 66.3666 86.0875C66.3666 83.9193 67.0987 82.2148 68.5628 80.9742C70.0381 79.7336 72.0723 79.1133 74.6653 79.1133C75.9394 79.1133 77.1521 79.2642 78.3033 79.5659C79.4657 79.8677 80.6784 80.2924 81.9413 80.8401L80.2648 84.8805C78.9571 84.344 77.873 83.9696 77.0124 83.7572C76.163 83.5448 75.3247 83.4387 74.4976 83.4387C73.5141 83.4387 72.7597 83.6678 72.2344 84.126C71.7091 84.5843 71.4464 85.1822 71.4464 85.9199C71.4464 86.3781 71.5526 86.7805 71.7649 87.127C71.9773 87.4623 72.3126 87.792 72.7708 88.1161C73.2403 88.4291 74.3412 88.9991 76.0736 89.8262C78.3648 90.9215 79.9351 92.0224 80.7845 93.1289C81.634 94.2242 82.0587 95.571 82.0587 97.1693Z" fill="#3554DB"/>
<path d="M93.3087 100.237C94.2029 100.237 95.2758 100.042 96.5276 99.6505V103.456C95.2535 104.026 93.6887 104.311 91.8334 104.311C89.7881 104.311 88.296 103.797 87.3571 102.769C86.4295 101.729 85.9656 100.176 85.9656 98.1081V89.0717H83.5179V86.909L86.3344 85.199L87.8098 81.2424H91.079V85.2325H96.3264V89.0717H91.079V98.1081C91.079 98.8346 91.2801 99.3711 91.6825 99.7175C92.096 100.064 92.6381 100.237 93.3087 100.237Z" fill="#3554DB"/>
<path d="M103.72 94.5707C103.72 96.426 104.022 97.8287 104.626 98.7787C105.241 99.7287 106.235 100.204 107.61 100.204C108.974 100.204 109.951 99.7343 110.544 98.7955C111.147 97.8454 111.449 96.4372 111.449 94.5707C111.449 92.7153 111.147 91.3238 110.544 90.3962C109.94 89.4685 108.951 89.0047 107.576 89.0047C106.213 89.0047 105.229 89.4685 104.626 90.3962C104.022 91.3127 103.72 92.7042 103.72 94.5707ZM116.68 94.5707C116.68 97.6219 115.875 100.008 114.266 101.729C112.656 103.451 110.415 104.311 107.543 104.311C105.743 104.311 104.156 103.92 102.782 103.138C101.407 102.344 100.351 101.21 99.613 99.7343C98.8754 98.259 98.5065 96.5378 98.5065 94.5707C98.5065 91.5082 99.3057 89.1276 100.904 87.4288C102.502 85.7299 104.749 84.8805 107.644 84.8805C109.443 84.8805 111.03 85.2716 112.405 86.054C113.78 86.8364 114.836 87.9596 115.573 89.4238C116.311 90.8879 116.68 92.6036 116.68 94.5707Z" fill="#3554DB"/>
<path d="M130.679 84.8805C131.372 84.8805 131.948 84.9308 132.406 85.0313L132.021 89.8262C131.607 89.7144 131.104 89.6585 130.512 89.6585C128.88 89.6585 127.606 90.0776 126.689 90.9159C125.784 91.7541 125.331 92.9277 125.331 94.4365V103.976H120.218V85.2325H124.091L124.845 88.3844H125.097C125.678 87.3337 126.46 86.4899 127.444 85.8528C128.438 85.2046 129.517 84.8805 130.679 84.8805Z" fill="#3554DB"/>
<path d="M142.885 88.5185C141.801 88.5185 140.951 88.865 140.337 89.5579C139.722 90.2397 139.37 91.2121 139.281 92.475H146.456C146.434 91.2121 146.104 90.2397 145.467 89.5579C144.83 88.865 143.969 88.5185 142.885 88.5185ZM143.606 104.311C140.588 104.311 138.23 103.479 136.531 101.813C134.832 100.148 133.983 97.7896 133.983 94.7383C133.983 91.5977 134.765 89.1723 136.33 87.4623C137.906 85.7411 140.08 84.8805 142.851 84.8805C145.5 84.8805 147.562 85.6349 149.038 87.1437C150.513 88.6526 151.251 90.7371 151.251 93.3971V95.8783H139.163C139.219 97.3313 139.649 98.4657 140.454 99.2816C141.259 100.098 142.388 100.505 143.841 100.505C144.969 100.505 146.037 100.388 147.043 100.153C148.049 99.9187 149.099 99.5443 150.195 99.0302V102.987C149.3 103.434 148.345 103.764 147.328 103.976C146.311 104.199 145.07 104.311 143.606 104.311Z" fill="#3554DB"/>
<defs>
<filter id="filter0_f" x="0.733643" y="0" width="226.495" height="226.495" filterUnits="userSpaceOnUse" color-interpolation-filters="sRGB">
<feFlood flood-opacity="0" result="BackgroundImageFix"/>
<feBlend mode="normal" in="SourceGraphic" in2="BackgroundImageFix" result="shape"/>
<feGaussianBlur stdDeviation="20" result="effect1_foregroundBlur"/>
</filter>
</defs>
</svg>
