<svg width="32" height="32" viewBox="0 0 32 32" fill="none" xmlns="http://www.w3.org/2000/svg">
<rect width="32" height="32" fill="#191F2C"/>
<path fill-rule="evenodd" clip-rule="evenodd" d="M23.7 17.1C25.5225 17.1 27 18.5775 27 20.4V23.7C27 25.5226 25.5225 27 23.7 27H20.4C18.5774 27 17.1 25.5226 17.1 23.7V20.4C17.1 18.5775 18.5774 17.1 20.4 17.1H23.7ZM11.6 17.1C13.4225 17.1 14.9 18.5775 14.9 20.4V23.7C14.9 25.5226 13.4225 27 11.6 27H8.3C6.47746 27 5 25.5226 5 23.7V20.4C5 18.5775 6.47746 17.1 8.3 17.1H11.6ZM11.6 5C13.4225 5 14.9 6.47746 14.9 8.3V11.6C14.9 13.4225 13.4225 14.9 11.6 14.9H8.3C6.47746 14.9 5 13.4225 5 11.6V8.3C5 6.47746 6.47746 5 8.3 5H11.6ZM23.7 5C25.5225 5 27 6.47746 27 8.3V11.6C27 13.4225 25.5225 14.9 23.7 14.9H20.4C18.5774 14.9 17.1 13.4225 17.1 11.6V8.3C17.1 6.47746 18.5774 5 20.4 5H23.7Z" fill="#5876E8"/>
</svg>
