<svg width="328" height="328" viewBox="0 0 328 328" fill="none" xmlns="http://www.w3.org/2000/svg">
<mask id="mask0" mask-type="alpha" maskUnits="userSpaceOnUse" x="0" y="0" width="328" height="328">
<rect width="328" height="328" fill="#C4C4C4"/>
</mask>
<g mask="url(#mask0)">
<rect x="-4" y="-3" width="332" height="332" fill="#FFF7EB"/>
<path d="M97.4468 324.728L92.2267 324.889C92.2267 324.889 92.0653 325.373 91.6886 326.287C90.0741 327.846 86.0379 331.556 86.4685 331.987C87.0604 332.632 96.9087 332.309 97.6083 331.234C98.2541 330.158 97.4468 324.728 97.4468 324.728Z" fill="#A6753B"/>
<path d="M92.711 328.814C92.6034 328.653 92.4957 328.491 92.3881 328.33C92.2267 328.169 92.0114 328.008 91.85 327.9C91.4194 327.577 91.0427 327.362 90.5584 327.255C90.2893 327.201 90.0202 327.631 90.3431 327.792C91.2042 328.169 91.7423 329.029 92.6572 329.029C92.711 329.029 92.7648 328.922 92.711 328.814Z" fill="#77432A"/>
<path d="M92.6572 327.147C92.2805 326.825 91.9038 326.556 91.4733 326.287C91.2042 326.072 90.8813 326.502 91.0966 326.771C91.4195 327.094 91.7424 327.416 92.0653 327.739C92.3882 328.008 92.711 328.438 93.1954 328.438C93.303 328.438 93.3568 328.384 93.3568 328.277C93.4106 327.739 92.9801 327.416 92.6572 327.147Z" fill="#77432A"/>
<path d="M107.779 325.158L112.999 325.319C112.999 325.319 113.161 325.803 113.538 326.717C115.152 328.277 119.188 331.987 118.758 332.417C118.166 333.062 108.317 332.739 107.618 331.664C106.918 330.589 107.779 325.158 107.779 325.158Z" fill="#A6753B"/>
<path d="M112.515 329.244C112.623 329.083 112.73 328.922 112.838 328.76C112.999 328.599 113.215 328.438 113.376 328.33C113.807 328.008 114.183 327.792 114.668 327.685C114.937 327.631 115.206 328.061 114.883 328.223C114.022 328.599 113.484 329.459 112.569 329.459C112.515 329.459 112.461 329.352 112.515 329.244Z" fill="#77432A"/>
<path d="M112.569 327.578C112.946 327.255 113.322 326.986 113.753 326.717C114.022 326.502 114.345 326.932 114.13 327.201C113.807 327.524 113.484 327.846 113.161 328.169C112.838 328.438 112.515 328.868 112.031 328.868C111.923 328.868 111.869 328.814 111.869 328.707C111.762 328.169 112.246 327.846 112.569 327.578Z" fill="#77432A"/>
<path d="M90.0202 278.915C90.0202 278.915 87.9752 284.669 88.9977 299.133C89.6435 307.736 92.0652 325.373 92.0652 325.373H97.5544C97.5544 325.373 99.4917 288.97 99.707 287.519C99.9223 286.067 100.73 285.637 100.945 286.497C101.052 286.873 103.582 296.337 104.766 303.273C106.057 310.801 107.51 325.642 107.51 325.642L113.376 325.427C113.376 325.427 114.452 303.004 113.807 297.842C113.215 293.057 110.47 278.324 110.47 278.324L90.0202 278.915Z" fill="#61657E"/>
<path d="M112.784 262.031C112.461 259.397 112.515 251.331 111.385 250.686C110.255 250.041 102.29 248.589 102.29 248.589C102.29 248.589 99.9223 247.944 97.2315 247.997C97.07 249.503 94.4869 256.386 93.572 258.429C93.4644 259.128 89.5359 279.937 89.5359 279.937C89.5359 279.937 93.303 281.926 100.676 283.217C108.102 284.507 111.815 282.733 111.815 282.733C111.815 282.733 112.892 263.161 112.784 262.031Z" fill="#D3E8EA"/>
<path d="M110.47 250.847C112.677 250.525 118.865 256.654 121.018 255.471C123.171 254.288 126.884 244.664 127.637 244.18C128.391 243.696 132.588 246.384 132.696 246.976C132.857 247.621 129.09 259.128 128.337 261.279C127.583 263.429 124.301 266.333 121.502 266.01C118.704 265.634 106.542 261.816 106.542 261.816C106.542 261.816 108.21 251.17 110.47 250.847Z" fill="#D3E8EA"/>
<path d="M128.391 245.309C127.906 244.61 127.637 243.104 127.314 242.136C126.991 241.115 126.722 238.91 128.068 238.803C129.413 238.695 129.306 240.631 130.382 240.416C131.028 240.254 133.988 238.05 135.602 238.211C137.27 238.426 139.154 241.33 137.647 242.405C136.14 243.534 132.911 246.331 131.727 246.438C130.543 246.546 128.875 246.008 128.391 245.309Z" fill="#FFC5AC"/>
<path d="M136.84 238.265C134.741 238.157 132.319 239.717 130.812 241.061C130.651 241.222 130.866 241.437 131.028 241.33C131.943 240.9 132.75 240.308 133.665 239.824C134.687 239.233 135.817 238.856 136.894 238.372C136.947 238.372 136.894 238.319 136.84 238.265Z" fill="#7C564F"/>
<path d="M137.808 239.502C136.248 238.749 133.772 240.685 132.642 241.545C132.427 241.706 132.588 242.029 132.857 241.921C133.611 241.545 134.257 241.061 134.956 240.631C135.871 240.093 136.84 240.039 137.808 239.717C137.862 239.663 137.916 239.555 137.808 239.502Z" fill="#7C564F"/>
<path d="M138.293 240.362C137.593 240.147 136.732 240.685 136.14 241.007C135.279 241.437 134.472 242.029 133.665 242.513C133.503 242.62 133.611 242.835 133.772 242.782C134.579 242.62 135.225 242.136 135.925 241.706C136.302 241.491 136.732 241.276 137.109 241.061C137.485 240.846 137.916 240.846 138.293 240.577C138.454 240.523 138.4 240.416 138.293 240.362Z" fill="#7C564F"/>
<path d="M98.7921 248.213C97.2315 246.599 88.621 247.836 87.5985 245.578C86.576 243.319 89.4282 233.372 89.1053 232.565C88.7824 231.705 83.8314 231.329 83.3471 231.759C82.8627 232.189 78.9342 243.642 78.2346 245.793C77.535 247.944 78.3961 252.245 80.8716 253.643C83.3471 255.041 95.3479 259.289 95.3479 259.289C95.3479 259.289 100.353 249.772 98.7921 248.213Z" fill="#D3E8EA"/>
<path d="M87.8137 232.995C88.6209 232.727 89.751 231.275 90.5583 230.63C91.4193 229.984 92.98 228.855 92.0113 227.941C91.0426 227.027 89.9125 228.64 89.2129 227.833C88.7824 227.296 87.5446 226.22 86.0916 225.414C84.6386 224.553 80.8715 223.962 81.0867 225.952C81.2482 227.941 83.6161 231.06 84.4771 231.866C85.3382 232.673 87.0064 233.264 87.8137 232.995Z" fill="#FFC5AC"/>
<path d="M84.1544 228.425C83.6162 227.887 83.0243 227.403 82.5399 226.866C82.0556 226.382 81.6789 225.79 81.1407 225.36C81.0331 225.253 80.8178 225.414 80.9255 225.521C81.3022 226.113 81.7327 226.651 82.217 227.188C82.7552 227.78 83.3472 228.317 84.1006 228.586C84.1544 228.586 84.2082 228.479 84.1544 228.425Z" fill="#7C564F"/>
<path d="M86.0916 226.005C85.6073 225.575 85.0691 225.091 84.531 224.822C84.4233 224.769 84.3695 224.876 84.4233 224.984C84.9077 225.414 85.392 225.844 85.8763 226.274C86.3607 226.704 86.7912 227.242 87.3294 227.565C87.3832 227.565 87.3832 227.565 87.3832 227.511C87.0603 226.919 86.5221 226.489 86.0916 226.005Z" fill="#7C564F"/>
<path d="M83.939 226.059C83.4547 225.629 82.8627 225.252 82.3784 224.822C82.3246 224.769 82.2708 224.876 82.2708 224.93C82.5936 225.468 83.078 225.79 83.5623 226.22C83.8314 226.435 84.1005 226.65 84.3157 226.866C84.5848 227.081 84.7463 227.403 85.0692 227.565C85.123 227.565 85.1768 227.565 85.1768 227.511C85.0153 226.866 84.3696 226.435 83.939 226.059Z" fill="#7C564F"/>
<path d="M106.541 256.601C107.026 256.332 107.618 254.073 107.403 253.482C107.187 252.89 106.003 252.675 105.142 252.568C104.281 252.514 103.097 253.374 103.151 254.181C103.205 254.934 103.582 256.386 104.012 256.708C103.689 258.644 102.021 268.269 102.398 270.151C102.828 272.248 104.497 274.99 105.035 275.098C105.573 275.205 107.456 271.119 107.779 270.043C108.102 269.075 106.703 258.16 106.541 256.601Z" fill="#DC6890"/>
<path d="M106.165 256.816C105.896 256.869 105.573 256.762 105.304 256.708C105.035 256.708 104.766 256.654 104.497 256.708C104.281 256.708 104.281 257.031 104.497 257.085C104.819 257.085 105.089 257.192 105.411 257.192C105.734 257.192 105.95 257.084 106.219 256.977C106.272 256.869 106.219 256.816 106.165 256.816Z" fill="#C24F68"/>
<path d="M102.721 248.32C101.967 248.374 100.46 247.513 100.03 250.041C99.5993 252.568 102.936 255.471 102.936 255.471L105.627 252.03L104.443 249.342C104.389 249.395 103.474 248.266 102.721 248.32Z" fill="#EAF0EF"/>
<path d="M106.165 248.643C106.865 248.589 108.479 248.643 109.017 250.578C109.609 252.46 107.456 255.203 107.456 255.203L104.873 252.299L104.712 249.987C104.766 249.987 105.465 248.696 106.165 248.643Z" fill="#EAF0EF"/>
<path d="M101.052 234.125C102.505 231.705 104.658 230.791 107.403 231.382C109.232 231.759 111.277 233.157 111.869 235.2C112.407 236.813 112.623 242.083 112.192 242.728C111.977 244.018 110.954 245.201 109.878 245.739C108.156 246.599 105.95 246.599 104.12 245.793C99.5993 243.857 98.7383 238.05 101.052 234.125Z" fill="#FFC5AC"/>
<path d="M108.156 244.932L107.672 251.331C107.672 251.331 106.273 252.03 104.443 251.976C102.613 251.922 101.591 250.094 101.591 250.094L103.205 243.319L108.156 244.932Z" fill="#FFC5AC"/>
<path d="M106.326 240.846C106.542 240.685 106.811 240.577 106.972 240.416C107.241 240.147 107.51 239.663 106.918 239.824C106.757 239.878 106.595 239.717 106.595 239.555C106.488 238.91 106.326 238.319 106.273 237.62C106.273 237.351 106.595 237.297 106.649 237.566C106.811 238.104 106.972 238.641 107.134 239.179C108.694 239.125 107.403 241.76 106.326 241.115C106.219 241.061 106.219 240.953 106.326 240.846Z" fill="#7C564F"/>
<path d="M104.873 241.975C105.411 242.298 105.896 242.62 106.488 242.728C107.187 242.835 107.887 242.405 108.533 242.136C108.748 242.029 108.963 242.351 108.748 242.513C107.672 243.534 105.304 243.857 104.604 242.19C104.55 242.029 104.712 241.921 104.873 241.975Z" fill="#7C564F"/>
<path d="M109.125 238.426C109.878 238.319 110.04 239.448 109.286 239.555C108.533 239.663 108.371 238.534 109.125 238.426Z" fill="#7C564F"/>
<path d="M104.12 238.91C104.766 238.803 104.927 239.77 104.281 239.878C103.636 239.986 103.474 238.964 104.12 238.91Z" fill="#7C564F"/>
<path d="M108.586 236.544C108.748 236.329 109.017 236.329 109.232 236.383C109.501 236.383 109.663 236.544 109.824 236.759C109.878 236.867 109.824 237.028 109.77 237.082C109.663 237.189 109.501 237.136 109.394 237.028C109.286 236.921 109.071 236.974 108.963 236.974C108.694 236.921 108.425 236.759 108.586 236.544Z" fill="#7C564F"/>
<path d="M103.097 237.028C103.259 236.921 103.313 236.921 103.474 236.867C103.636 236.867 103.797 236.813 103.905 236.813C104.228 236.759 104.281 237.243 103.958 237.297C103.797 237.297 103.689 237.351 103.528 237.351C103.366 237.405 103.259 237.351 103.097 237.351C102.99 237.297 102.936 237.082 103.097 237.028Z" fill="#7C564F"/>
<path d="M98.2002 239.233C98.2002 238.749 98.5231 238.265 99.0074 238.104C99.4379 237.996 99.8685 238.211 100.191 238.426C100.46 238.641 101.268 239.394 101.16 239.824C101.268 239.878 101.375 239.932 101.429 240.039C101.698 240.523 101.698 241.168 101.268 241.545C100.891 241.867 100.407 241.814 99.9761 241.652C98.9536 241.276 98.1464 240.254 98.2002 239.233Z" fill="#FFC5AC"/>
<path d="M103.044 245.47C104.12 246.115 106.165 246.707 107.349 246.223C107.564 246.115 107.726 246.438 107.51 246.545C106.111 247.191 104.066 246.546 102.99 245.578C102.882 245.524 102.99 245.416 103.044 245.47Z" fill="#7C564F"/>
<path d="M111.116 232.619C111.654 232.296 111.869 231.866 111.17 231.382C110.524 230.952 109.394 230.845 108.587 230.898C108.479 230.898 108.371 230.898 108.264 230.898C108.317 230.845 108.317 230.737 108.371 230.63C108.425 230.468 108.371 230.253 108.21 230.146C107.134 229.554 106.219 229.823 105.304 230.307C105.465 229.662 104.981 229.178 104.335 229.285C103.528 229.339 102.774 229.984 102.236 230.468C101.591 231.06 100.891 231.812 100.568 232.673C99.2764 233.479 98.4692 237.835 99.4379 238.48C99.4917 238.91 100.299 238.856 100.191 238.319C100.191 238.265 100.191 238.265 100.137 238.211C100.245 238.534 100.353 237.889 100.353 237.835C100.407 237.62 100.514 237.351 100.568 237.136C100.729 236.652 100.891 236.114 100.999 235.576C101.106 235.146 101.16 234.77 101.214 234.34C101.268 234.34 101.321 234.393 101.375 234.393C102.721 234.824 104.066 234.501 105.411 234.178C106.918 233.802 108.156 233.963 109.555 234.609C110.578 235.039 111.708 235.63 112.838 235.308C113.053 235.254 113.268 235.092 113.268 234.824C113.484 233.694 112.3 232.995 111.116 232.619Z" fill="#316D6A"/>
<path d="M230.613 322.846L235.833 323.007C235.833 323.007 235.994 323.491 236.371 324.405C237.985 325.964 242.022 329.674 241.591 330.105C240.999 330.75 231.151 330.427 230.451 329.352C229.805 328.276 230.613 322.846 230.613 322.846Z" fill="#A6753B"/>
<path d="M235.348 326.932C235.456 326.771 235.564 326.61 235.671 326.448C235.833 326.287 236.048 326.126 236.21 326.018C236.64 325.696 237.017 325.48 237.501 325.373C237.77 325.319 238.039 325.749 237.716 325.911C236.855 326.287 236.317 327.147 235.402 327.147C235.348 327.147 235.295 327.04 235.348 326.932Z" fill="#77432A"/>
<path d="M235.402 325.265C235.779 324.943 236.156 324.674 236.586 324.405C236.855 324.19 237.178 324.62 236.963 324.889C236.64 325.211 236.317 325.534 235.994 325.857C235.671 326.126 235.348 326.556 234.864 326.556C234.757 326.556 234.703 326.502 234.703 326.394C234.649 325.857 235.079 325.534 235.402 325.265Z" fill="#77432A"/>
<path d="M212.746 322.308L207.526 322.469C207.526 322.469 207.364 322.953 206.988 323.867C205.373 325.427 201.337 329.137 201.768 329.567C202.36 330.212 212.208 329.889 212.907 328.814C213.553 327.739 212.746 322.308 212.746 322.308Z" fill="#A6753B"/>
<path d="M208.01 326.394C207.903 326.233 207.795 326.072 207.687 325.91C207.526 325.749 207.311 325.588 207.149 325.48C206.719 325.158 206.342 324.943 205.858 324.835C205.588 324.781 205.319 325.211 205.642 325.373C206.503 325.749 207.042 326.609 207.956 326.609C208.01 326.609 208.064 326.502 208.01 326.394Z" fill="#77432A"/>
<path d="M207.956 324.674C207.58 324.351 207.203 324.082 206.772 323.813C206.503 323.598 206.181 324.029 206.396 324.297C206.719 324.62 207.042 324.943 207.364 325.265C207.687 325.534 208.01 325.964 208.495 325.964C208.602 325.964 208.656 325.911 208.656 325.803C208.71 325.265 208.279 324.943 207.956 324.674Z" fill="#77432A"/>
<path d="M233.788 277.033C233.788 277.033 237.34 289.239 237.017 297.412C236.748 304.402 235.994 323.491 235.994 323.491H230.559C230.559 323.491 224.37 287.088 224.209 285.637C223.993 284.185 222.594 284.346 222.379 285.206C222.271 285.583 216.997 293.433 215.814 300.37C214.522 307.897 213.069 322.738 213.069 322.738L207.203 322.523C207.203 322.523 206.127 300.101 206.773 294.939C207.364 290.153 213.392 276.442 213.392 276.442L233.788 277.033Z" fill="#617AB4"/>
<path d="M209.409 261.225C209.571 258.59 209.033 250.524 210.109 249.825C211.185 249.126 219.042 247.191 219.042 247.191C219.042 247.191 221.356 246.384 224.047 246.277C224.262 247.728 227.276 254.503 228.352 256.439C228.46 257.138 233.68 277.679 233.68 277.679C233.68 277.679 230.075 279.937 222.756 281.658C215.437 283.378 211.616 281.873 211.616 281.873C211.616 281.873 209.302 262.354 209.409 261.225Z" fill="#E7E3EA"/>
<path d="M211.024 249.933C208.764 249.718 203.005 256.224 200.799 255.202C198.593 254.181 194.287 244.771 193.48 244.341C192.673 243.911 188.69 246.814 188.583 247.46C188.475 248.105 192.942 259.343 193.803 261.44C194.664 263.537 198.108 266.279 200.907 265.741C203.705 265.204 215.598 260.687 215.598 260.687C215.598 260.687 213.23 250.094 211.024 249.933Z" fill="#E7E3EA"/>
<path d="M192.78 245.47C193.211 244.771 193.426 243.265 193.642 242.244C193.857 241.222 194.018 239.018 192.673 238.964C191.327 238.91 191.543 240.846 190.466 240.685C189.767 240.577 186.753 238.534 185.085 238.803C183.47 239.125 181.694 242.083 183.309 243.158C184.923 244.18 188.26 246.814 189.498 246.814C190.735 246.868 192.35 246.223 192.78 245.47Z" fill="#FFC5AC"/>
<path d="M183.901 239.018C186 238.749 188.529 240.201 190.09 241.437C190.251 241.545 190.09 241.814 189.874 241.706C188.96 241.33 188.045 240.792 187.13 240.362C186.053 239.878 184.923 239.555 183.847 239.125C183.847 239.071 183.847 239.018 183.901 239.018Z" fill="#7C564F"/>
<path d="M183.04 240.254C184.547 239.394 187.13 241.168 188.368 241.975C188.583 242.136 188.421 242.459 188.152 242.351C187.399 242.029 186.699 241.545 185.946 241.168C184.977 240.684 184.062 240.684 183.04 240.416C182.986 240.469 182.932 240.308 183.04 240.254Z" fill="#7C564F"/>
<path d="M182.555 241.168C183.201 240.9 184.116 241.383 184.708 241.652C185.569 242.029 186.43 242.566 187.237 242.997C187.399 243.104 187.291 243.319 187.13 243.265C186.323 243.158 185.623 242.728 184.923 242.351C184.547 242.136 184.116 241.975 183.686 241.76C183.255 241.599 182.825 241.599 182.502 241.383C182.448 241.33 182.448 241.222 182.555 241.168Z" fill="#7C564F"/>
<path d="M222.487 246.545C223.94 244.879 232.604 245.524 233.519 243.212C234.38 240.9 230.936 231.167 231.205 230.307C231.474 229.446 236.371 228.801 236.909 229.178C237.447 229.554 242.022 240.738 242.883 242.889C243.744 245.04 243.098 249.341 240.73 250.901C238.362 252.46 226.63 257.461 226.63 257.461C226.63 257.461 221.034 248.266 222.487 246.545Z" fill="#E7E3EA"/>
<path d="M232.55 230.683C231.743 230.468 230.505 229.07 229.644 228.479C228.783 227.887 227.115 226.866 228.03 225.898C228.944 224.93 230.182 226.489 230.828 225.629C231.259 225.091 232.389 223.962 233.788 222.994C235.187 222.08 238.9 221.22 238.847 223.209C238.793 225.199 236.64 228.479 235.833 229.339C234.972 230.253 233.357 230.898 232.55 230.683Z" fill="#FFC5AC"/>
<path d="M235.887 225.951C236.371 225.36 236.909 224.876 237.394 224.285C237.824 223.747 238.201 223.155 238.685 222.671C238.793 222.564 239.008 222.671 238.9 222.833C238.577 223.478 238.147 224.016 237.716 224.607C237.232 225.199 236.694 225.844 235.94 226.113C235.887 226.113 235.833 226.005 235.887 225.951Z" fill="#7C564F"/>
<path d="M233.842 223.639C234.272 223.155 234.757 222.672 235.348 222.349C235.456 222.295 235.564 222.403 235.456 222.456C235.026 222.94 234.541 223.371 234.111 223.854C233.68 224.338 233.25 224.876 232.712 225.199C232.658 225.199 232.658 225.199 232.658 225.145C232.927 224.607 233.411 224.123 233.842 223.639Z" fill="#7C564F"/>
<path d="M235.994 223.532C236.479 223.102 237.017 222.618 237.501 222.241C237.555 222.187 237.609 222.295 237.609 222.349C237.34 222.886 236.855 223.263 236.371 223.693C236.102 223.908 235.887 224.177 235.618 224.392C235.402 224.661 235.187 224.93 234.918 225.145C234.864 225.199 234.81 225.145 234.81 225.091C234.918 224.446 235.564 223.962 235.994 223.532Z" fill="#7C564F"/>
<path d="M215.275 255.418C214.791 255.203 214.091 252.944 214.199 252.353C214.36 251.761 215.544 251.439 216.405 251.331C217.266 251.224 218.45 251.976 218.45 252.783C218.45 253.536 218.127 254.987 217.751 255.364C218.181 257.246 220.442 266.763 220.172 268.699C219.903 270.796 218.397 273.646 217.858 273.807C217.32 273.968 215.221 269.989 214.791 268.968C214.522 267.946 215.168 256.977 215.275 255.418Z" fill="#DC6890"/>
<path d="M215.706 255.633C215.975 255.687 216.298 255.525 216.567 255.471C216.836 255.418 217.105 255.418 217.374 255.418C217.589 255.418 217.643 255.74 217.374 255.794C217.051 255.848 216.782 255.955 216.459 255.955C216.136 255.955 215.921 255.902 215.652 255.74C215.598 255.687 215.598 255.633 215.706 255.633Z" fill="#C24F68"/>
<path d="M218.558 246.922C219.312 246.922 220.765 245.954 221.357 248.481C221.895 251.008 218.827 254.073 218.827 254.073L215.921 250.793L216.944 248.051C216.944 248.105 217.805 246.922 218.558 246.922Z" fill="#F5F0F4"/>
<path d="M215.168 247.46C214.468 247.46 212.854 247.621 212.423 249.557C211.993 251.492 214.253 254.073 214.253 254.073L216.621 251.008L216.674 248.696C216.621 248.696 215.867 247.46 215.168 247.46Z" fill="#F5F0F4"/>
<path d="M219.365 232.619C217.805 230.253 215.545 229.5 212.854 230.253C211.024 230.791 209.141 232.296 208.602 234.34C208.172 236.007 208.279 241.276 208.764 241.868C209.033 243.158 210.109 244.233 211.239 244.717C213.015 245.47 215.168 245.309 216.998 244.449C221.41 242.244 221.895 236.383 219.365 232.619Z" fill="#FFC5AC"/>
<path d="M212.961 243.857L213.876 250.202C213.876 250.202 215.329 250.793 217.105 250.632C218.881 250.471 219.85 248.589 219.85 248.589L217.805 241.921L212.961 243.857Z" fill="#FFC5AC"/>
<path d="M222.54 237.566C222.487 237.082 222.164 236.598 221.679 236.49C221.249 236.383 220.872 236.652 220.549 236.921C220.28 237.136 219.581 237.942 219.688 238.372C219.581 238.426 219.473 238.48 219.419 238.641C219.204 239.125 219.204 239.77 219.688 240.093C220.065 240.362 220.603 240.308 220.98 240.093C221.895 239.663 222.648 238.588 222.54 237.566Z" fill="#FFC5AC"/>
<path d="M218.128 244.072C217.105 244.771 215.114 245.524 213.876 245.094C213.661 245.04 213.5 245.363 213.715 245.416C215.168 245.954 217.159 245.201 218.181 244.18C218.235 244.126 218.181 244.018 218.128 244.072Z" fill="#7C564F"/>
<path d="M213.446 235.899C213.23 236.222 213.123 236.544 213.015 236.867C212.854 237.405 212.477 237.189 212.046 237.028C211.939 236.974 211.724 237.082 211.67 237.189C211.401 237.727 211.454 238.319 211.724 238.856C211.939 239.286 212.262 239.878 212.8 239.77C212.854 239.77 212.907 239.663 212.907 239.609C212.854 239.286 212.585 239.125 212.423 238.856C212.208 238.534 212.1 238.104 212.154 237.727C212.531 237.888 213.015 237.996 213.338 237.62C213.661 237.243 213.607 236.49 213.768 236.006C213.822 235.845 213.553 235.684 213.446 235.899Z" fill="#7C564F"/>
<path d="M215.814 238.856C214.683 239.771 214.038 241.061 212.423 241.061C212.208 241.061 212.208 241.384 212.423 241.437C213.876 241.545 215.76 240.523 216.029 239.018C216.029 238.856 215.921 238.749 215.814 238.856Z" fill="#7C564F"/>
<path d="M216.029 235.63C215.275 235.63 215.275 236.813 216.029 236.813C216.782 236.813 216.782 235.63 216.029 235.63Z" fill="#7C564F"/>
<path d="M210.378 236.652C209.679 236.652 209.679 237.781 210.378 237.781C211.078 237.781 211.078 236.652 210.378 236.652Z" fill="#7C564F"/>
<path d="M210.432 234.662C210.217 234.555 210.055 234.608 209.84 234.716C209.625 234.877 209.463 235.092 209.302 235.308C209.14 235.523 209.517 235.738 209.679 235.523C209.786 235.361 209.894 235.2 210.055 235.092C210.109 235.039 210.163 235.039 210.271 234.985C210.378 234.931 210.432 234.877 210.486 234.824C210.54 234.824 210.486 234.662 210.432 234.662Z" fill="#7C564F"/>
<path d="M217.589 234.34C217.32 233.963 216.782 234.071 216.352 234.125C216.136 234.178 216.136 234.501 216.352 234.501C216.567 234.555 216.728 234.501 216.944 234.555C217.051 234.555 217.159 234.609 217.213 234.609C217.267 234.609 217.266 234.608 217.32 234.662H217.374C217.428 234.662 217.428 234.662 217.374 234.662C217.428 234.77 217.589 234.662 217.589 234.555C217.589 234.501 217.589 234.501 217.589 234.501C217.643 234.501 217.643 234.447 217.589 234.34Z" fill="#7C564F"/>
<path d="M208.656 234.34C208.656 234.34 204.728 233.264 206.611 231.544C208.495 229.823 210.378 230.737 210.378 230.737C210.378 230.737 208.495 228.855 210.271 227.78C212.046 226.704 214.468 228.748 214.468 228.748C214.468 228.748 214.468 226.704 216.728 228.102C218.989 229.5 221.464 232.834 221.141 234.286C220.818 235.738 221.034 238.48 220.334 238.695C219.634 238.91 219.527 236.007 219.365 234.931C219.204 233.856 219.096 232.673 218.181 232.135C217.267 231.597 214.845 231.705 213.338 232.135C211.831 232.565 208.656 234.34 208.656 234.34Z" fill="#D7564F"/>
<path d="M75.3338 85.4807C75.3338 85.4807 22.1168 87.6297 9.94936 111.821C-2.2795 136.013 10.8711 156.521 10.8711 156.521C10.8711 156.521 48.4795 147.986 58.4346 136.197C68.3898 124.531 75.3338 85.4807 75.3338 85.4807Z" fill="#42A5B3"/>
<path d="M39.1388 125.943C42.027 125.882 44.9153 125.882 47.8035 125.575C50.8146 125.207 53.8257 124.654 56.7754 123.979C59.2949 123.426 62.1217 122.996 64.3954 121.645C64.7027 121.461 64.5183 120.97 64.211 120.97C60.0938 120.847 55.6693 122.566 51.6135 123.303C49.2783 123.733 46.9432 123.979 44.608 124.163C42.3957 124.347 39.1388 124.838 36.988 124.04C37.1109 123.917 37.2338 123.733 37.3567 123.61C43.0717 117.532 49.0325 111.699 55.0548 105.927C60.524 100.647 66.4847 95.6118 71.3394 89.7788C71.5852 89.5332 71.1551 89.1034 70.9093 89.349C65.1328 94.1996 59.7865 99.7256 54.3173 104.883C51.6749 107.401 49.0325 109.918 46.3901 112.435C46.6359 109.243 47.742 106.234 48.7253 103.225C49.8928 99.6028 50.5688 95.796 51.7978 92.112C51.9207 91.6822 51.3677 91.4366 51.1833 91.8664C49.2783 95.6118 48.6023 99.6642 47.189 103.594C46.0828 106.848 44.7309 110.225 44.9767 113.786V113.848C42.2114 116.488 39.5075 119.189 36.8651 121.952C30.8429 128.154 25.4966 134.908 20.1503 141.662C15.9716 130.794 19.843 118.514 22.4854 107.708C22.5469 107.401 22.1167 107.278 21.9324 107.585C18.7369 113.602 17.4464 120.663 16.8934 127.356C16.5246 132.083 16.4017 138.653 19.2285 142.89C16.1559 146.819 13.0834 150.749 9.94933 154.617C9.27337 155.477 10.5638 156.521 11.3013 155.661C14.3738 151.916 17.385 148.047 20.3961 144.179C20.7648 144.241 21.195 143.934 20.9492 143.504V143.442C25.9882 137.057 31.0272 130.671 36.4964 124.654C36.988 125.759 37.9098 126.005 39.1388 125.943Z" fill="#40819A"/>
<path d="M42.4572 318.187C42.4572 318.187 -9.59228 299.828 -14.2626 272.137C-18.9329 244.445 0.301419 228.113 0.301419 228.113C0.301419 228.113 34.9601 248.068 41.2281 262.743C47.4962 277.417 42.4572 318.187 42.4572 318.187Z" fill="#42A5B3"/>
<path d="M18.9827 267.04C21.8094 268.023 24.6362 268.882 27.463 270.049C30.3512 271.338 33.1165 272.812 35.8818 274.347C38.217 275.636 40.8594 276.926 42.7029 278.952C42.9488 279.198 42.6415 279.689 42.3342 279.566C38.217 278.461 34.3455 275.391 30.597 273.426C28.4462 272.321 26.1725 271.338 23.9602 270.417C21.8094 269.558 18.7368 268.084 16.4017 268.207C16.4631 268.391 16.586 268.575 16.6475 268.76C20.396 276.557 24.5747 284.11 28.7534 291.662C32.5634 298.539 36.9265 305.354 39.9376 312.661C40.0605 313.029 39.5689 313.275 39.3846 312.968C35.083 306.398 31.5188 299.275 27.6473 292.46C25.8038 289.144 23.8988 285.89 22.1167 282.575C21.3793 285.829 21.5636 289.083 21.6251 292.399C21.6865 296.39 21.1949 300.319 21.2564 304.31C21.2564 304.74 20.6418 304.801 20.5804 304.372C19.843 300.074 20.396 295.837 20.2117 291.539C20.0888 287.978 19.843 284.171 21.1335 280.794V280.733C19.2285 277.294 17.3849 273.794 15.6028 270.233C11.547 262.251 8.29009 253.962 5.09461 245.612C-2.40248 255.129 -2.27957 268.453 -2.95554 279.934C-2.95554 280.303 -3.44715 280.241 -3.5086 279.934C-4.86054 272.996 -4.00022 265.628 -2.46393 258.813C-1.41925 254.024 0.485746 247.454 4.603 244.138C2.75945 239.288 0.915906 234.498 -0.989091 229.709C-1.41925 228.665 0.23994 228.051 0.6701 229.095C2.5751 233.762 4.35719 238.489 6.20074 243.217C6.56945 243.279 6.8767 243.708 6.56945 244.015C6.56945 244.015 6.56945 244.015 6.508 244.077C9.51912 251.936 12.5917 259.795 16.1559 267.409C16.7704 266.611 17.8151 266.611 18.9827 267.04Z" fill="#40819A"/>
<path d="M72.6913 257.339C72.6913 257.339 25.0663 265.505 9.58056 246.349C-5.84378 227.13 1.89912 206.5 1.89912 206.5C1.89912 206.5 36.9265 206.93 47.9878 215.464C59.1105 223.999 72.6913 257.339 72.6913 257.339Z" fill="#8ECAB3"/>
<path d="M32.8707 228.297C35.4517 227.806 37.9712 227.253 40.6136 227.008C43.3789 226.762 46.1442 226.701 48.9095 226.701C51.2447 226.701 53.8257 226.578 56.0994 227.315C56.4066 227.437 56.3452 227.867 56.0994 227.929C52.4737 228.85 48.2336 228.113 44.485 228.236C42.3342 228.297 40.2449 228.481 38.0941 228.788C36.0662 229.034 33.1165 229.218 31.3344 230.323C31.4573 230.446 31.6417 230.507 31.7646 230.63C37.9712 234.99 44.4236 238.981 50.876 242.972C56.7139 246.594 62.9819 249.971 68.3897 254.208C68.6355 254.392 68.3897 254.822 68.0824 254.699C61.9987 251.506 56.2223 247.577 50.3844 244.015C47.5576 242.296 44.7308 240.577 41.9041 238.796C42.7029 241.559 44.2392 244.015 45.7141 246.533C47.4962 249.542 48.7866 252.796 50.5073 255.804C50.6916 256.173 50.2615 256.48 50.0157 256.173C47.6191 253.225 46.2057 249.787 44.2392 246.533C42.58 243.831 40.7979 241.068 40.3678 237.937V237.875C37.4181 236.033 34.5299 234.191 31.6417 232.227C25.1278 227.867 19.0441 222.894 13.0833 217.859C11.4241 228.297 17.2006 238.428 21.6251 247.577C21.748 247.822 21.3793 248.006 21.1949 247.822C17.2006 243.094 14.681 237.077 12.899 231.183C11.6699 227.069 10.318 221.236 11.9772 216.938C8.47444 214.052 5.03316 211.105 1.53042 208.281C0.731548 207.667 1.71477 206.5 2.51364 207.114C5.95493 209.877 9.39622 212.701 12.776 215.587C13.0833 215.464 13.5135 215.649 13.3906 216.078C13.3906 216.078 13.3906 216.078 13.3906 216.14C19.0441 220.868 24.7591 225.595 30.7813 229.832C31.0272 228.85 31.826 228.481 32.8707 228.297Z" fill="#81B69A"/>
<path d="M265.526 102.489C265.526 102.489 305.716 106.173 314.012 125.022C322.308 143.811 311.554 158.854 311.554 158.854C311.554 158.854 283.409 150.933 276.342 141.6C269.213 132.329 265.526 102.489 265.526 102.489Z" fill="#8ECAB3"/>
<path d="M291.274 134.539C289.062 134.355 286.911 134.232 284.761 133.925C282.487 133.557 280.275 133.004 278.001 132.39C276.096 131.899 274.007 131.408 272.347 130.364C272.163 130.241 272.286 129.873 272.532 129.873C275.666 129.934 278.923 131.408 281.934 132.145C283.654 132.574 285.437 132.881 287.219 133.066C288.878 133.311 291.336 133.802 292.995 133.25C292.934 133.127 292.811 133.004 292.749 132.943C288.693 128.092 284.33 123.487 280.029 118.882C276.096 114.707 271.794 110.593 268.353 105.988C268.169 105.743 268.476 105.497 268.722 105.681C272.9 109.549 276.71 113.97 280.705 118.084C282.61 120.11 284.515 122.075 286.42 124.101C286.358 121.645 285.682 119.373 285.006 117.04C284.269 114.216 283.9 111.33 283.163 108.506C283.101 108.199 283.532 108.014 283.654 108.321C284.945 111.207 285.314 114.339 286.235 117.347C286.973 119.865 287.833 122.505 287.526 125.145V125.206C289.492 127.355 291.459 129.443 293.364 131.653C297.665 136.565 301.475 141.907 305.224 147.249C308.85 139.206 306.33 129.75 304.794 121.461C304.732 121.215 305.101 121.154 305.224 121.4C307.375 126.066 308.112 131.469 308.296 136.565C308.419 140.127 308.235 145.161 305.961 148.231C308.112 151.301 310.263 154.433 312.537 157.441C313.028 158.117 311.984 158.854 311.492 158.178C309.28 155.231 307.19 152.161 305.04 149.152C304.732 149.152 304.486 148.968 304.609 148.661C304.609 148.661 304.609 148.661 304.609 148.6C301.045 143.565 297.481 138.53 293.548 133.802C292.934 134.478 292.258 134.601 291.274 134.539Z" fill="#81B69A"/>
<path d="M223.801 186.054C223.801 186.054 198.974 189.677 189.818 187.528C180.662 185.317 161.673 180.958 149.997 186.791C138.322 192.624 113.802 214.912 112.758 220.008C111.652 225.104 118.596 229.525 120.808 229.157C123.02 228.788 118.964 234.99 123.758 237.937C128.489 240.884 136.539 237.937 136.539 237.937C136.539 237.937 135.802 247.454 141.271 247.822C146.74 248.191 149.936 247.086 149.936 247.086C149.936 247.086 148.215 254.392 154.422 253.655C160.628 252.919 192.399 229.587 198.974 228.113C205.55 226.639 232.588 220.438 232.588 220.438L223.801 186.054Z" fill="#FFA799"/>
<path d="M94.691 186.054C94.691 186.054 119.517 189.677 128.674 187.528C137.83 185.317 156.818 180.958 168.494 186.791C180.17 192.624 205.488 217.982 206.594 223.078C207.7 228.174 199.896 229.525 197.745 229.157C195.533 228.788 199.589 234.99 194.795 237.937C190.064 240.884 182.014 237.937 182.014 237.937C182.014 237.937 182.751 247.454 177.282 247.822C171.813 248.191 169.6 248.559 169.6 248.559C169.6 248.559 170.338 254.392 164.131 253.655C157.925 252.919 126.154 229.587 119.579 228.113C113.004 226.639 85.9648 220.438 85.9648 220.438L94.691 186.054Z" fill="#FFC4C4"/>
<path d="M196.024 228.788C194.242 226.455 191.846 224.49 189.879 222.28C188.773 221.052 187.053 218.657 185.455 218.105C185.332 218.043 185.209 218.105 185.148 218.166C185.148 218.166 185.148 218.166 185.086 218.228C184.902 218.412 185.086 218.903 185.393 218.78C185.148 218.903 186.438 220.315 186.745 220.622C187.606 221.666 188.589 222.648 189.511 223.692C191.231 225.657 193.136 228.42 195.717 229.218C195.902 229.28 196.147 228.973 196.024 228.788Z" fill="#ECACB5"/>
<path d="M181.215 236.955C179.986 235.665 178.572 234.621 177.343 233.271C176.114 231.92 174.947 230.569 173.349 229.587C172.919 229.341 172.427 229.955 172.857 230.262C174.394 231.429 175.623 232.964 176.852 234.437C177.958 235.665 179.248 237.139 180.907 237.446C181.215 237.446 181.399 237.139 181.215 236.955Z" fill="#ECACB5"/>
<path d="M169.662 247.761C168.371 246.779 166.958 246.103 165.79 244.998C164.684 243.954 163.762 242.788 162.656 241.805C162.226 241.437 161.673 241.989 162.042 242.419C163.209 243.77 164.377 245.121 165.667 246.349C166.712 247.331 168.064 248.436 169.539 248.252C169.785 248.191 169.846 247.884 169.662 247.761Z" fill="#ECACB5"/>
<path d="M81.1716 178.747L96.473 186.422L85.5347 226.21L68.021 221.42L81.1716 178.747Z" fill="#D6E8FF"/>
<path d="M-10.2068 114.83L83.8141 176.66L69.6802 230.2L-14.5698 208.772L-10.2068 114.83Z" fill="#81C1E5"/>
<path d="M58.6804 219.64C62.21 219.64 65.0713 216.781 65.0713 213.254C65.0713 209.727 62.21 206.868 58.6804 206.868C55.1508 206.868 52.2894 209.727 52.2894 213.254C52.2894 216.781 55.1508 219.64 58.6804 219.64Z" fill="#FFCF6D"/>
<path d="M237.32 178.747L221.957 186.422L232.896 226.21L250.471 221.42L237.32 178.747Z" fill="#D6E8EC"/>
<path d="M328.637 114.83L234.616 176.66L248.75 230.2L333 208.772L328.637 114.83Z" fill="#81B8C4"/>
<path d="M259.75 219.64C263.279 219.64 266.141 216.781 266.141 213.254C266.141 209.727 263.279 206.868 259.75 206.868C256.22 206.868 253.359 209.727 253.359 213.254C253.359 216.781 256.22 219.64 259.75 219.64Z" fill="#FFCF6D"/>
<path d="M120.992 212.702C115.4 214.789 108.21 223.631 112.573 228.788C116.936 233.885 126.83 226.946 129.718 223.692C132.668 220.377 129.78 209.386 120.992 212.702Z" fill="#FFA799"/>
<path d="M133.037 221.052C133.037 221.052 118.411 227.99 121.73 234.56C125.048 241.13 134.143 239.288 139.243 236.034C144.344 232.718 148.768 227.622 145.081 223.263C141.456 218.903 133.037 221.052 133.037 221.052Z" fill="#FFA799"/>
<path d="M152.025 229.832C148.707 230.201 134.512 233.455 135.925 241.13C137.4 248.805 142.623 250.278 148.707 247.7C154.791 245.121 159.645 240.393 160.383 237.139C161.181 233.885 155.344 229.464 152.025 229.832Z" fill="#FFA799"/>
<path d="M149.874 247.024C149.874 247.024 158.662 236.832 165.237 241.191C170.952 244.998 162.656 253.962 156.45 255.068C150.243 256.111 146.925 251.015 149.874 247.024Z" fill="#FFA799"/>
<path d="M130.333 222.833C127.998 224.429 126.339 227.56 123.45 228.174C122.959 228.297 123.082 229.095 123.573 229.034C126.769 228.604 128.612 225.35 130.64 223.201C130.824 223.017 130.579 222.648 130.333 222.833Z" fill="#EA888F"/>
<path d="M142.07 233.7C141.394 234.376 140.595 234.928 139.919 235.604C139.673 235.849 137.646 237.63 137.215 237.262C136.97 237.016 136.478 237.323 136.724 237.63C137.891 239.472 142.009 235.051 142.439 234.007C142.623 233.762 142.316 233.455 142.07 233.7Z" fill="#EA888F"/>
<path d="M156.511 240.823C154.545 242.788 152.517 244.507 149.997 245.612C149.567 245.796 149.874 246.472 150.305 246.349C152.886 245.796 155.897 243.647 157.064 241.191C157.126 240.884 156.757 240.577 156.511 240.823Z" fill="#EA888F"/>
<path d="M194.058 188.203C189.326 187.466 155.344 177.274 146.925 179.422C138.506 181.633 122.098 180.896 122.836 185.992C123.573 191.088 128.305 196.185 135.618 195.509C142.93 194.772 165.237 194.404 165.237 194.404C165.237 194.404 198.79 188.939 194.058 188.203Z" fill="#FFA799"/>
<path d="M180.6 191.334C176.667 191.948 172.919 193.238 168.863 193.176C168.433 193.176 168.433 193.852 168.863 193.852C172.857 194.281 177.036 193.238 180.723 191.764C181.03 191.703 180.908 191.273 180.6 191.334Z" fill="#EA888F"/>
<path d="M248.688 245.121C248.688 245.121 251.7 298.232 276.157 310.021C300.615 321.809 320.894 308.363 320.894 308.363C320.894 308.363 311.738 270.97 299.816 261.146C287.895 251.445 248.688 245.121 248.688 245.121Z" fill="#42A5B3"/>
<path d="M289.8 280.61C289.677 277.724 289.615 274.838 289.246 271.952C288.878 268.944 288.202 265.997 287.526 262.988C286.911 260.471 286.481 257.646 285.068 255.436C284.883 255.19 284.392 255.313 284.392 255.62C284.33 259.734 286.112 264.093 286.911 268.146C287.341 270.479 287.71 272.812 287.895 275.145C288.14 277.356 288.693 280.61 287.895 282.759C287.772 282.636 287.587 282.513 287.464 282.39C281.258 276.803 275.358 270.909 269.459 265.014C264.113 259.672 258.951 253.778 252.99 249.05C252.683 248.805 252.314 249.234 252.56 249.48C257.476 255.19 263.13 260.409 268.414 265.812C270.934 268.453 273.515 271.031 276.096 273.61C272.9 273.426 269.889 272.382 266.817 271.461C263.13 270.295 259.32 269.742 255.632 268.575C255.202 268.453 254.957 269.005 255.387 269.189C259.197 271.031 263.191 271.645 267.185 272.996C270.442 274.101 273.884 275.329 277.386 275.022H277.448C280.152 277.724 282.856 280.364 285.682 283.004C291.95 288.899 298.833 294.179 305.715 299.337C294.9 303.696 282.548 300.012 271.671 297.556C271.364 297.495 271.303 297.925 271.548 298.109C277.632 301.179 284.699 302.407 291.459 302.837C296.191 303.144 302.766 303.144 306.945 300.258C310.939 303.266 314.933 306.275 318.805 309.345C319.665 310.02 320.648 308.67 319.788 307.994C315.978 304.986 312.045 302.038 308.174 299.091C308.235 298.723 307.928 298.293 307.498 298.539H307.436C300.922 293.627 294.47 288.715 288.386 283.311C289.615 282.759 289.861 281.838 289.8 280.61Z" fill="#40819A"/>
<path d="M301.291 204.474C301.291 204.474 276.096 245.673 288.263 267.102C300.431 288.53 322.492 288.96 322.492 288.96C322.492 288.96 334.966 256.295 331.095 242.849C327.285 229.402 301.291 204.474 301.291 204.474Z" fill="#8ECAB3"/>
<path d="M313.643 252.182C315.056 249.971 316.47 247.822 317.699 245.428C318.928 242.972 320.034 240.393 321.017 237.876C321.877 235.665 322.983 233.332 323.106 230.999C323.106 230.692 322.676 230.569 322.492 230.815C320.341 233.823 319.419 238.06 317.944 241.498C317.084 243.463 316.101 245.366 315.118 247.208C314.134 248.989 312.844 251.691 311.185 252.919C311.123 252.734 311.123 252.611 311.062 252.427C309.341 245.059 307.928 237.569 306.637 230.139C305.408 223.385 304.609 216.324 302.643 209.693C302.52 209.386 302.028 209.447 302.09 209.816C302.827 216.631 304.364 223.447 305.47 230.201C306.023 233.455 306.576 236.709 307.19 239.963C304.917 238.183 303.196 235.849 301.414 233.578C299.263 230.815 296.682 228.42 294.593 225.657C294.347 225.35 293.855 225.657 294.101 225.964C296.006 229.28 298.649 231.858 300.984 234.867C302.889 237.384 304.794 240.086 307.559 241.621H307.621C308.235 244.998 308.911 248.436 309.648 251.813C311.308 259.427 313.704 266.918 316.162 274.347C305.838 272.014 298.526 262.927 291.643 255.497C291.459 255.252 291.152 255.559 291.274 255.804C294.224 261.207 298.894 265.812 303.688 269.619C307.067 272.321 311.984 275.698 316.592 275.698C318.006 279.996 319.481 284.294 320.771 288.592C321.078 289.513 322.492 289.022 322.246 288.101C320.956 283.864 319.542 279.689 318.129 275.452C318.375 275.207 318.313 274.777 317.944 274.715C317.944 274.715 317.944 274.715 317.883 274.715C315.548 267.716 313.274 260.655 311.553 253.533C312.352 253.655 313.028 253.103 313.643 252.182Z" fill="#81B69A"/>
<path d="M251.376 135.381C252.052 133.416 251.867 131.144 250.638 129.179C248.365 125.434 243.08 125.373 239.331 126.048C238.532 126.171 237.733 126.416 236.935 126.662C236.935 126.601 236.873 126.601 236.873 126.539C237.057 121.32 233.616 115.856 227.471 115.364C226.242 115.242 223.538 115.733 220.711 116.654C219.79 112.417 217.393 108.242 214.566 106.154C209.773 102.593 203.136 104.312 199.326 108.488C195.393 112.908 194.41 119.969 196.499 125.557C192.567 124.083 186.852 125.434 183.84 127.89C181.444 129.855 180.829 132.618 181.382 135.381H251.376Z" fill="white"/>
<path d="M59.8312 132.802H98.5456C98.8529 132.004 98.7914 131.022 98.1769 130.039C96.825 127.89 93.7524 127.031 91.4173 126.724C91.0485 126.662 90.6798 126.662 90.3111 126.662C90.3726 125.004 89.881 123.162 89.3279 122.057C88.3447 120.092 85.8252 119.847 83.9202 120.461C82.9369 120.768 82.0766 121.382 81.4007 122.119C81.4007 119.785 80.909 117.391 79.4957 115.61C77.775 113.338 74.8868 113.645 73.2891 115.917C72.1215 117.575 70.8924 121.627 71.507 124.452C70.2165 123.838 68.6187 123.531 67.5126 123.408C64.9931 123.101 61.306 123.224 60.1999 126.048C59.4625 127.952 60.3842 130.101 61.9205 131.636C61.1831 131.943 60.4457 132.311 59.8312 132.802Z" fill="white"/>
<path d="M180.891 97.4355C179.17 94.3041 175.114 92.6463 172.103 94.1199C172.595 91.1727 171.304 88.0413 168.539 86.4449C164.913 84.2959 161.964 87.4273 159.444 89.8219C158.522 86.3835 157.293 80.3049 153.115 80.7961C150.534 81.1031 149.182 83.4363 148.26 85.5239C148.076 85.9537 147.768 86.5677 147.523 87.2431C147.338 87.1817 147.215 87.0589 147.031 86.9975C145.187 86.2607 142.791 85.5239 140.763 86.0151C137.199 86.8747 140.21 92.3393 141.377 94.7339C137.998 94.9795 132.037 92.4007 130.808 96.6987C130.746 96.9443 130.685 97.1899 130.685 97.4355H180.891Z" fill="white"/>
<path d="M27.97 60.0749H34.81V57.0149H27.97V52.9349H35.38V49.7849H24.22V68.2649H26.14C30.28 68.2649 33.01 68.2049 36.19 67.6649L35.83 64.4849C33.25 64.8749 31.03 64.9949 27.97 65.0249V60.0749ZM43.24 46.9049V57.6149H41.02V47.3549H37.33V73.3349H41.02V60.7949H43.24V74.5649H46.99V46.9049H43.24ZM69.4277 63.8249H73.3877V46.9349H69.4277V51.3749H66.1877V54.5549H69.4277V56.5649H66.1877V59.7149H69.4277V63.8249ZM56.9777 51.9149H59.5577V59.4149C58.6877 59.4449 57.8177 59.5049 56.9777 59.5049V51.9149ZM65.8877 58.9349C65.0777 59.0249 64.2377 59.1149 63.3677 59.1749V51.9149H65.5577V48.7649H50.9777V51.9149H53.1677V59.5949C52.1477 59.5949 51.1877 59.5949 50.2877 59.5949L50.7077 62.8049C55.0577 62.8049 60.9977 62.7149 66.1277 61.8449L65.8877 58.9349ZM64.0277 71.5949C60.3977 71.5949 58.5377 70.8749 58.5377 69.4349C58.5377 67.9649 60.3977 67.2749 64.0277 67.2749C67.6877 67.2749 69.5477 67.9649 69.5477 69.4349C69.5477 70.8749 67.6877 71.5949 64.0277 71.5949ZM64.0277 64.2749C58.1477 64.2749 54.5777 66.1649 54.5777 69.4349C54.5777 72.6749 58.1477 74.5949 64.0277 74.5949C69.9377 74.5949 73.5077 72.6749 73.5077 69.4349C73.5077 66.1649 69.9377 64.2749 64.0277 64.2749ZM101.465 59.5349C95.1653 58.5149 91.7753 54.3749 91.7753 50.4449V48.4649H87.5453V50.4449C87.5453 54.2849 84.1253 58.5149 77.8853 59.5349L79.5053 62.8049C84.3353 61.9349 87.8453 59.3249 89.6453 55.9349C91.4453 59.3549 94.9853 61.9349 99.8453 62.8049L101.465 59.5349ZM91.6553 68.1149V61.9349H87.6953V68.1149H77.2853V71.2949H102.305V68.1149H91.6553Z" fill="black"/>
<path d="M24.672 33.312H28.848V32.272H24.672V29.552H29.072V28.48H23.408V37.632H24.352C26.672 37.632 28.048 37.584 29.712 37.264L29.584 36.176C28.048 36.48 26.768 36.544 24.672 36.544V33.312ZM33.792 26.832V32.592H31.888V27.152H30.64V40.48H31.888V33.664H33.792V41.184H35.04V26.832H33.792ZM44.2867 32.4C44.6547 30.704 44.6547 29.408 44.6547 28.496V27.728H37.5507V28.784H43.3748C43.3748 29.648 43.3428 30.768 43.0068 32.288L44.2867 32.4ZM45.6628 33.296C44.1908 33.488 42.5747 33.584 41.0068 33.648V30.848H39.7108V33.68C38.6387 33.712 37.5827 33.712 36.6707 33.712L36.8147 34.8C39.3907 34.8 42.7828 34.72 45.7587 34.256L45.6628 33.296ZM43.3108 40.112C41.1828 40.112 39.8707 39.536 39.8707 38.544C39.8707 37.568 41.1828 36.992 43.3108 36.992C45.4388 36.992 46.7508 37.568 46.7508 38.544C46.7508 39.536 45.4388 40.112 43.3108 40.112ZM43.3108 35.968C40.3668 35.968 38.5427 36.912 38.5427 38.544C38.5427 40.208 40.3668 41.152 43.3108 41.152C46.2548 41.152 48.0788 40.208 48.0788 38.544C48.0788 36.912 46.2548 35.968 43.3108 35.968ZM47.9348 30.752V26.816H46.6228V35.776H47.9348V31.84H49.9828V30.752H47.9348ZM60.6375 29.792C60.6375 31.568 60.6375 33.712 60.0615 36.64L61.3735 36.784C61.9335 33.68 61.9335 31.616 61.9335 29.792V28.368H61.3255V28.352H52.0935V29.424H60.6375V29.792ZM50.7015 38V39.088H63.6775V38H50.7015ZM74.6522 29.456H66.2682V32.784H76.2522V31.776H67.5642V30.432H75.9482V27.136H66.2362V28.144H74.6522V29.456ZM74.6522 39.968H67.6282V38.48H74.6522V39.968ZM74.6522 37.488H67.6282V35.904H66.3162V40.992H75.9482V35.904H74.6522V37.488ZM64.5882 33.936V34.992H70.4442V36.768H71.7562V34.992H77.6122V33.936H64.5882ZM89.5433 30.56V31.632H92.3753V35.392H93.7033V26.848H92.3753V30.56H89.5433ZM90.3433 33.824C88.2633 33.088 86.8553 31.28 86.8553 29.44V28.944H90.0073V27.888H82.3433V28.944H85.5433V29.44C85.5433 31.504 84.0713 33.44 81.9273 34.224L82.6153 35.264C84.2953 34.624 85.6233 33.28 86.2313 31.616C86.8553 33.088 88.0873 34.272 89.6873 34.848L90.3433 33.824ZM88.9673 40.16C86.8073 40.16 85.4953 39.552 85.4953 38.512C85.4953 37.472 86.8073 36.848 88.9673 36.848C91.1273 36.848 92.4393 37.472 92.4393 38.512C92.4393 39.552 91.1273 40.16 88.9673 40.16ZM88.9673 35.84C86.0233 35.84 84.1833 36.816 84.1833 38.512C84.1833 40.208 86.0233 41.184 88.9673 41.184C91.9113 41.184 93.7353 40.208 93.7353 38.512C93.7353 36.816 91.9113 35.84 88.9673 35.84ZM102.95 38.288V34.608H107.318V33.552H98.758V29.056H107.174V27.984H97.446V34.608H101.622V38.288H95.782V39.376H108.822V38.288H102.95ZM120.213 30.544V32.464H116.453V33.536H120.213V35.424H121.541V26.848H120.213V29.472H116.965C117.061 28.976 117.125 28.448 117.125 27.92H110.645V28.976H115.701C115.461 31.456 113.333 33.36 109.909 34.384L110.437 35.424C113.525 34.528 115.701 32.848 116.629 30.544H120.213ZM116.853 40.096C114.741 40.096 113.397 39.44 113.397 38.352C113.397 37.28 114.741 36.624 116.853 36.624C118.965 36.624 120.309 37.28 120.309 38.352C120.309 39.44 118.965 40.096 116.853 40.096ZM116.853 35.584C113.957 35.584 112.101 36.624 112.101 38.352C112.101 40.08 113.957 41.12 116.853 41.12C119.749 41.12 121.605 40.08 121.605 38.352C121.605 36.624 119.749 35.584 116.853 35.584ZM125.107 31.088C125.107 29.76 126.163 28.8 127.555 28.8C128.963 28.8 129.987 29.76 129.987 31.088C129.987 32.432 128.963 33.392 127.555 33.392C126.163 33.392 125.107 32.432 125.107 31.088ZM134.131 29.968V32.208H131.043C131.171 31.856 131.235 31.488 131.235 31.088C131.235 30.672 131.171 30.304 131.059 29.968H134.131ZM134.131 33.28V35.328H135.459V26.832H134.131V28.896H130.451C129.795 28.16 128.771 27.696 127.555 27.696C125.427 27.696 123.859 29.088 123.859 31.088C123.859 33.104 125.427 34.512 127.555 34.512C128.771 34.512 129.795 34.048 130.451 33.28H134.131ZM130.707 40.128C128.547 40.128 127.235 39.488 127.235 38.416C127.235 37.328 128.547 36.688 130.707 36.688C132.899 36.688 134.211 37.328 134.211 38.416C134.211 39.488 132.899 40.128 130.707 40.128ZM130.707 35.664C127.763 35.664 125.939 36.672 125.939 38.416C125.939 40.16 127.763 41.168 130.707 41.168C133.667 41.168 135.507 40.16 135.507 38.416C135.507 36.672 133.667 35.664 130.707 35.664Z" fill="black"/>
</g>
</svg>
