<svg width="328" height="328" viewBox="0 0 328 328" fill="none" xmlns="http://www.w3.org/2000/svg">
<mask id="mask0" mask-type="alpha" maskUnits="userSpaceOnUse" x="0" y="0" width="328" height="328">
<rect width="328" height="328" rx="15" fill="#C4C4C4"/>
</mask>
<g mask="url(#mask0)">
<path d="M335.062 -5.19043H-5.88403V344.366H335.062V-5.19043Z" fill="#E1E8F6"/>
<g opacity="0.28">
<path opacity="0.28" d="M243.689 14.3847C277.443 37.5953 302.059 57.9394 335.063 59.4775V-5.19043H205.026C217.027 -1.06567 230.187 5.08652 243.689 14.3847Z" fill="url(#paint0_linear)"/>
<path opacity="0.28" d="M13.2772 290.255C5.09445 289.975 -1.11078 286.479 -5.88403 281.586V344.366H119.516C128.585 300.602 39.9392 291.164 13.2772 290.255Z" fill="url(#paint1_linear)"/>
</g>
<path d="M245.53 266.135C246.553 266.764 247.371 268.163 247.371 269.351C247.371 270.54 246.553 271.029 245.53 270.4L228.96 260.612C227.937 259.983 227.119 258.585 227.119 257.396C227.119 256.208 227.937 255.718 228.96 256.348L245.53 266.135Z" fill="#1AE5FF"/>
<g opacity="0.57">
<path opacity="0.57" d="M42.9395 159.101C41.8485 159.73 40.962 161.338 40.962 162.666L41.0984 210.905C41.0984 213.981 43.2123 215.24 45.8035 213.702L73.8293 197.133C74.9203 196.503 75.8068 194.895 75.8068 193.567L75.6704 145.328C75.6704 142.252 73.5565 140.994 70.9653 142.532L42.9395 159.101Z" fill="#1AE5FF"/>
</g>
<path d="M47.2354 176.649C46.8945 176.858 46.6217 177.348 46.6217 177.697V180.284C46.6217 180.704 46.8945 180.843 47.2354 180.634L70.0788 167.071C70.4198 166.861 70.6925 166.372 70.6925 166.022V163.435C70.6925 163.016 70.4198 162.876 70.0788 163.086L47.2354 176.649Z" fill="white"/>
<path d="M47.3038 182.172C46.9628 182.382 46.6901 182.871 46.6901 183.221V185.807C46.6901 186.227 46.9628 186.367 47.3038 186.157L70.1472 172.594C70.4881 172.384 70.7609 171.965 70.7609 171.545V168.959C70.7609 168.539 70.4881 168.399 70.1472 168.609L47.3038 182.172Z" fill="white"/>
<path d="M56.1684 186.366C55.4183 186.856 54.7365 187.974 54.7365 188.883V189.442C54.7365 190.351 55.3502 190.701 56.1684 190.281L63.5329 185.877C64.2829 185.387 64.9648 184.269 64.9648 183.36V182.801C64.9648 181.892 64.3511 181.542 63.5329 181.962L56.1684 186.366Z" fill="url(#paint2_linear)"/>
<path d="M139.836 78.9827C139.768 78.9128 139.7 78.9127 139.632 78.8428C139.564 78.7729 139.427 78.703 139.359 78.703C139.291 78.6331 139.155 78.6331 139.086 78.5632C139.018 78.4933 138.882 78.4933 138.814 78.4234C138.745 78.3535 138.609 78.3535 138.541 78.2836H138.473C138.404 78.2836 138.336 78.2136 138.268 78.2136C138.2 78.2136 138.064 78.1437 137.995 78.1437C137.927 78.1437 137.791 78.0738 137.723 78.0738C137.586 78.0738 137.518 78.0039 137.382 78.0039C137.313 78.0039 137.245 78.0039 137.177 78.0039H137.109C136.972 78.0039 136.904 78.0039 136.768 78.0039C136.632 78.0039 136.495 78.0039 136.427 78.0039C136.291 78.0039 136.154 78.0039 136.018 78.0738C135.881 78.0738 135.677 78.1437 135.54 78.2136C135.336 78.2836 135.131 78.3535 134.995 78.4933L130.29 81.2897C130.631 81.08 130.972 80.9402 131.313 80.8703C131.654 80.8004 132.063 80.8004 132.472 80.8004C132.881 80.8703 133.29 80.9402 133.768 81.08C134.245 81.2198 134.722 81.4296 135.2 81.7791L263.055 157.703L267.76 154.906L139.836 78.9827Z" fill="url(#paint3_linear)"/>
<path d="M277.511 168.469C277.511 168.329 277.511 168.259 277.511 168.12C277.511 167.98 277.511 167.91 277.511 167.77C277.511 167.63 277.511 167.56 277.442 167.421C277.442 167.281 277.442 167.211 277.374 167.071C277.374 166.931 277.306 166.861 277.306 166.721C277.306 166.582 277.238 166.442 277.238 166.372C277.238 166.232 277.17 166.092 277.17 166.022C277.17 165.882 277.101 165.743 277.101 165.673C277.101 165.603 277.033 165.463 277.033 165.393V165.323C276.965 165.183 276.965 165.044 276.897 164.974C276.829 164.834 276.829 164.694 276.76 164.624C276.692 164.484 276.692 164.414 276.624 164.275C276.556 164.135 276.556 164.065 276.488 163.925C276.42 163.855 276.42 163.715 276.351 163.645V163.575C276.283 163.436 276.215 163.366 276.215 163.226C276.147 163.086 276.079 162.946 276.01 162.876C275.942 162.736 275.874 162.597 275.806 162.457C275.738 162.317 275.669 162.177 275.533 161.967C275.533 161.967 275.533 161.898 275.465 161.898L275.397 161.828C275.26 161.548 275.056 161.268 274.851 160.989C274.715 160.779 274.578 160.569 274.374 160.36C274.237 160.22 274.169 160.08 274.033 159.94C273.965 159.8 273.828 159.73 273.76 159.59C273.692 159.451 273.556 159.381 273.487 159.241C273.419 159.101 273.283 159.031 273.215 158.961L273.146 158.891C273.078 158.821 273.01 158.752 272.942 158.682C272.874 158.612 272.737 158.472 272.669 158.402C272.533 158.332 272.465 158.192 272.328 158.122C272.192 158.052 272.124 157.913 271.987 157.843C271.919 157.773 271.851 157.773 271.851 157.703C271.851 157.703 271.851 157.703 271.783 157.703C271.714 157.703 271.714 157.633 271.646 157.633C271.51 157.563 271.442 157.493 271.305 157.423C271.237 157.353 271.101 157.283 270.964 157.213C270.896 157.144 270.76 157.074 270.692 157.004C270.623 156.934 270.487 156.864 270.419 156.794C270.419 156.794 270.351 156.794 270.351 156.724L265.646 159.521C266.123 159.8 266.6 160.15 267.078 160.499C267.078 160.499 267.078 160.499 267.146 160.499C267.623 160.849 268.032 161.268 268.441 161.758C269.26 162.667 270.01 163.715 270.623 164.834C270.623 164.834 270.623 164.904 270.692 164.904C270.964 165.463 271.305 166.022 271.51 166.582C271.783 167.141 271.987 167.77 272.124 168.329C272.328 168.959 272.465 169.518 272.533 170.147C272.601 170.776 272.669 171.336 272.669 171.895L272.396 263.409C272.396 263.968 272.328 264.457 272.26 264.947C272.26 264.947 272.26 264.947 272.26 265.017C272.192 265.506 272.055 265.925 271.851 266.275C271.714 266.625 271.51 266.834 271.305 267.114C271.237 267.184 271.169 267.254 271.101 267.394C270.896 267.673 270.623 267.883 270.351 268.023L275.056 265.226C275.328 265.087 275.601 264.807 275.806 264.597C275.874 264.527 275.942 264.457 276.01 264.318C276.079 264.178 276.215 264.108 276.283 263.968C276.351 263.828 276.488 263.618 276.556 263.479C276.624 263.339 276.692 263.269 276.692 263.129C276.76 262.989 276.76 262.849 276.829 262.779C276.897 262.64 276.897 262.57 276.897 262.43C276.897 262.36 276.897 262.29 276.897 262.29C276.897 262.29 276.897 262.29 276.897 262.22C276.897 262.15 276.897 262.15 276.897 262.08C276.897 261.941 276.965 261.871 276.965 261.731C276.965 261.591 276.965 261.521 277.033 261.381C277.033 261.241 277.033 261.171 277.033 261.032C277.033 260.892 277.033 260.822 277.033 260.682L277.306 169.168C277.511 168.679 277.511 168.539 277.511 168.469Z" fill="url(#paint4_linear)"/>
<path d="M265.85 159.101C269.737 161.408 272.874 167.001 272.874 171.615L272.601 263.129C272.601 267.743 269.396 269.561 265.509 267.254L134.859 189.932C130.972 187.625 127.835 182.032 127.835 177.418L128.108 85.9038C128.108 81.2897 131.313 79.472 135.2 81.779L265.85 159.101Z" fill="url(#paint5_linear)"/>
<path d="M257.736 158.891C261.35 160.989 264.214 166.162 264.214 170.357L264.009 254.53C264.009 258.725 261.077 260.472 257.531 258.305L143.587 190.911C139.973 188.813 137.109 183.64 137.109 179.445L137.313 95.2721C137.313 91.0774 140.246 89.3296 143.791 91.4969L257.736 158.891Z" fill="#F9FBFC"/>
<path d="M267.896 232.018C267.35 232.018 266.941 231.599 266.941 231.04V201.677C266.941 201.118 267.35 200.698 267.896 200.698C268.441 200.698 268.851 201.118 268.851 201.677V231.04C268.851 231.599 268.441 232.018 267.896 232.018Z" fill="#F9FBFC"/>
<path d="M132.267 138.127C133.358 138.757 134.313 140.365 134.313 141.693C134.313 143.021 133.427 143.511 132.267 142.881C131.176 142.252 130.222 140.644 130.222 139.316C130.222 137.988 131.176 137.498 132.267 138.127Z" fill="white"/>
<path d="M210.617 150.572C210.958 151.76 211.231 153.019 211.367 154.207C211.435 154.906 211.503 155.605 211.503 156.305C211.503 156.514 211.503 156.724 211.503 156.934V157.004C211.503 157.213 211.503 157.353 211.435 157.563C211.435 157.633 211.435 157.633 211.435 157.703C211.435 157.913 211.367 158.052 211.367 158.262C211.299 158.472 211.299 158.682 211.299 158.821C211.231 159.031 211.231 159.241 211.162 159.381V159.451C211.094 159.59 211.094 159.8 211.026 159.94V160.01C210.958 160.15 210.89 160.29 210.89 160.499C210.822 160.709 210.753 160.849 210.685 160.989C210.617 161.198 210.549 161.338 210.481 161.478C210.481 161.478 210.481 161.548 210.412 161.548C210.344 161.688 210.276 161.828 210.208 161.897C210.208 161.897 210.208 161.967 210.14 161.967C210.071 162.107 210.003 162.247 209.867 162.317C209.799 162.457 209.662 162.527 209.594 162.667C209.594 162.667 209.594 162.667 209.526 162.736C209.458 162.806 209.321 162.946 209.253 163.016L209.185 163.086C209.117 163.156 208.98 163.296 208.912 163.366C208.912 163.366 208.912 163.366 208.844 163.436C208.776 163.505 208.639 163.575 208.503 163.645C208.367 163.715 208.23 163.785 208.162 163.855C208.162 163.855 208.094 163.855 208.094 163.925C207.958 163.995 207.889 164.065 207.753 164.135H207.685C207.548 164.205 207.48 164.274 207.344 164.274C207.276 164.344 207.207 164.344 207.139 164.344C207.071 159.87 204.071 154.487 200.252 152.25C196.434 150.013 193.365 151.83 193.297 156.305C193.297 156.305 193.433 156.514 193.638 156.794C193.57 156.654 193.433 156.514 193.365 156.375C193.229 156.095 193.092 155.955 192.956 155.745L192.888 155.675C192.751 155.466 192.615 155.326 192.547 155.116C192.547 155.046 192.479 155.046 192.479 154.976C192.342 154.767 192.274 154.557 192.138 154.347C192.001 154.137 191.933 153.928 191.797 153.718C191.797 153.648 191.729 153.648 191.729 153.578C191.592 153.368 191.524 153.159 191.388 152.949C191.388 152.879 191.319 152.879 191.319 152.809C191.251 152.599 191.115 152.39 191.047 152.25C190.91 151.97 190.842 151.76 190.774 151.551C190.774 151.481 190.706 151.481 190.706 151.411C190.637 151.201 190.501 150.991 190.433 150.782C190.297 150.502 190.228 150.292 190.16 150.082C190.16 150.082 190.16 150.013 190.092 150.013C190.024 149.803 189.956 149.593 189.887 149.383C189.887 149.313 189.887 149.313 189.819 149.244C189.683 148.824 189.546 148.405 189.41 147.915C189.41 147.845 189.41 147.845 189.41 147.775C189.342 147.566 189.274 147.356 189.274 147.146C189.274 147.076 189.274 147.076 189.274 147.006C189.206 146.797 189.206 146.587 189.137 146.377C189.069 146.098 189.069 145.888 189.001 145.678C189.001 145.608 189.001 145.608 189.001 145.538C189.001 145.329 188.933 145.119 188.933 144.909C188.933 144.629 188.865 144.42 188.865 144.28C188.865 144.21 188.865 144.21 188.865 144.14C188.865 143.93 188.865 143.721 188.796 143.511C188.796 143.441 188.796 143.441 188.796 143.371C188.796 143.161 188.796 142.952 188.796 142.742C188.796 142.043 188.865 141.413 188.933 140.784C189.069 139.736 189.342 138.827 189.683 138.058C189.751 137.918 189.819 137.778 189.887 137.568C191.729 134.213 195.615 133.374 200.116 136.03C204.139 138.407 207.685 143.021 209.662 147.915C209.799 148.265 209.935 148.544 210.071 148.894C210.344 149.593 210.481 150.082 210.617 150.572ZM200.457 150.852C202.775 152.25 204.684 151.131 204.684 148.405C204.684 145.678 202.843 142.322 200.457 140.924C198.138 139.526 196.229 140.644 196.229 143.371C196.229 146.167 198.07 149.523 200.457 150.852Z" fill="url(#paint6_linear)"/>
<path d="M228.415 187.205C229.301 187.695 229.983 188.953 229.983 190.002V196.783C229.983 197.832 229.301 198.251 228.415 197.692L167.727 161.757C166.84 161.268 166.158 160.01 166.158 158.961V152.18C166.158 151.131 166.84 150.711 167.727 151.271L228.415 187.205Z" fill="#CFE3FF"/>
<path d="M228.346 202.026C229.233 202.516 229.915 203.774 229.915 204.823V211.604C229.915 212.653 229.233 213.072 228.346 212.513L167.658 176.579C166.771 176.089 166.089 174.831 166.089 173.782V167.001C166.089 165.952 166.771 165.533 167.658 166.092L228.346 202.026Z" fill="#CFE3FF"/>
<path d="M201.275 204.963C202.911 205.941 204.207 208.248 204.207 210.206V211.464C204.207 213.352 202.911 214.191 201.275 213.212L185.864 204.054C184.228 203.075 182.932 200.768 182.932 198.81V197.552C182.932 195.664 184.296 194.895 185.864 195.804L201.275 204.963Z" fill="url(#paint7_linear)"/>
<path d="M145.291 204.124C145.291 204.124 140.041 207.2 139.223 221.392C139.904 223.979 143.928 225.377 146.996 223.35C150.133 221.252 146.928 206.501 145.291 204.124Z" fill="url(#paint8_linear)"/>
<path d="M171.954 219.365C171.954 219.365 183.955 213.912 185.523 212.933C187.16 212.024 188.319 208.598 188.933 207.899C189.546 207.2 192.274 205.522 192.138 206.221C192.069 206.921 190.637 208.319 190.637 208.319C190.637 208.319 191.66 210.067 191.865 211.185C192.069 212.304 190.569 214.611 189.751 215.24C188.933 215.869 187.023 216.079 187.023 216.079C187.023 216.079 177.272 222.79 175.636 222.93C174.067 223 171.749 222.091 171.954 219.365Z" fill="#FF9D6F"/>
<path opacity="0.21" d="M157.566 304.307C170.935 304.307 181.773 297.702 181.773 289.555C181.773 281.409 170.935 274.804 157.566 274.804C144.196 274.804 133.358 281.409 133.358 289.555C133.358 297.702 144.196 304.307 157.566 304.307Z" fill="url(#paint9_linear)"/>
<path d="M147.542 286.34C147.542 286.34 147.201 288.647 147.678 289.625C148.087 290.464 149.724 291.094 150.883 290.255C152.042 289.416 154.02 287.248 154.02 287.248C154.02 287.248 157.361 285.431 157.634 284.452C157.975 283.473 156.815 282.634 155.861 282.844C154.906 283.054 152.247 284.732 150.951 284.732C149.656 284.732 147.951 285.151 147.542 286.34Z" fill="#113C7A"/>
<path d="M144.132 236.493C144.132 236.493 147.064 285.64 147.405 287.039C147.746 288.437 151.565 289.276 152.247 287.039C152.724 285.571 153.815 240.128 153.815 240.128L144.132 236.493Z" fill="#113C7A"/>
<path d="M157.156 289.276C157.02 289.416 156.884 289.625 156.884 289.835C156.884 290.534 156.884 292.002 157.293 292.632C157.77 293.401 159.338 294.24 160.907 293.331C162.271 292.562 166.362 289.416 167.248 288.717C167.726 288.297 167.998 287.738 168.067 287.388C168.135 287.039 167.998 286.619 167.657 286.479C167.044 286.2 166.089 285.85 165.203 286.2C163.839 286.689 162.134 288.227 160.225 288.087C158.793 288.017 157.634 288.856 157.156 289.276Z" fill="#113C7A"/>
<path d="M163.566 237.052C163.362 235.025 160.975 234.326 158.793 235.025C154.633 234.815 148.087 234.955 147.883 238.311C147.542 243.274 149.792 246.77 151.974 249.147C153.611 250.895 154.633 254.32 155.111 255.928C155.52 268.932 156.338 287.318 156.884 289.136C157.702 292.002 161.93 291.863 162.066 289.066C162.884 279.768 163.566 237.052 163.566 237.052Z" fill="#113C7A"/>
<path d="M163.566 238.59C163.089 241.107 156.065 242.365 151.974 241.666C147.883 240.967 143.45 238.94 143.587 234.046C143.587 234.046 142.973 214.541 142.973 210.766C142.973 206.92 145.291 204.124 145.291 204.124C145.291 204.124 147.61 201.467 154.77 202.936C154.77 202.936 160.634 204.264 163.362 208.738C163.362 208.738 165.203 213.632 164.589 223.839C164.044 234.046 163.566 238.59 163.566 238.59Z" fill="url(#paint10_linear)"/>
<path d="M149.178 197.552C149.178 197.552 149.792 201.258 149.178 203.005C149.042 203.844 152.724 206.711 155.929 206.011C157.77 205.592 157.702 204.613 157.702 204.613C157.702 204.613 156.134 201.957 156.338 199.37C156.543 196.783 151.36 196.993 149.178 197.552Z" fill="#FF7C40"/>
<path d="M161.316 190.002C161.316 194.826 157.497 198.811 152.724 198.811C148.019 198.811 144.132 194.896 144.132 190.002C144.132 185.178 147.951 181.193 152.724 181.193C157.497 181.263 161.316 185.178 161.316 190.002Z" fill="#FF9D6F"/>
<path d="M161.316 190.631C161.316 190.631 161.452 199.44 159.543 201.188C157.702 202.936 154.838 199.51 150.201 198.391C145.632 197.203 153.952 188.044 153.952 188.044L161.316 190.631Z" fill="#FF9D6F"/>
<path d="M160.634 206.641C160.634 206.641 162.543 206.081 164.657 209.227C166.771 212.373 169.908 216.498 171.34 217.197C172.84 217.896 174.817 216.498 175.636 216.498C176.454 216.498 178.568 220.343 177.749 222.301C176.931 224.258 171.749 225.167 170.385 225.167C169.021 225.167 160.361 219.784 159.134 216.778C157.975 213.771 156.065 206.78 160.634 206.641Z" fill="url(#paint11_linear)"/>
<path d="M174.408 216.987C174.408 216.987 174.954 215.449 176.795 215.31C178.704 215.17 180.818 218.875 180.682 220.972C180.545 223 177.613 224.118 176.931 223.559C176.318 223 177.681 221.602 174.408 216.987Z" fill="url(#paint12_linear)"/>
<path d="M157.907 182.591C157.907 182.591 160.975 183.29 161.93 188.114C161.521 190.142 158.725 188.534 157.634 191.26C156.543 193.987 155.861 194.826 155.861 194.826L155.179 194.546C155.179 194.546 155.179 192.379 154.224 192.379C153.27 192.379 152.997 194.966 153.542 196.084C154.088 197.203 155.315 197.762 155.315 197.762C155.315 197.762 153.952 200.069 153.338 200.349C152.656 200.628 150.269 200.069 149.315 199.65C148.36 199.23 146.655 197.343 145.292 195.105C143.928 192.938 142.769 189.093 143.519 186.436C144.337 183.85 146.178 183.151 146.178 183.151C146.178 183.151 147.269 181.613 149.11 180.983C151.088 180.284 154.565 180.005 157.907 182.591Z" fill="#843837"/>
<path d="M159.338 204.753L157.088 203.495C157.088 203.495 151.36 202.936 149.315 201.537L148.224 203.075C148.224 203.075 149.656 205.942 153.338 206.291C157.02 206.641 158.725 205.173 158.725 205.173L159.338 204.753Z" fill="#CFDAE4"/>
<g opacity="0.67">
<g opacity="0.67">
<path opacity="0.67" d="M260.122 135.121V137.708C260.122 139.246 258.485 140.155 257.258 139.386L245.393 132.325C244.779 131.975 244.438 131.346 244.438 130.647V128.06C244.438 126.522 246.075 125.614 247.302 126.383L259.167 133.444C259.713 133.793 260.122 134.422 260.122 135.121Z" fill="#1AE5FF"/>
</g>
<g opacity="0.67">
<path opacity="0.67" d="M297.558 170.077V172.664C297.558 174.202 295.922 175.111 294.694 174.342L245.394 145.119C244.78 144.769 244.439 144.14 244.439 143.441V140.854C244.439 139.316 246.075 138.407 247.303 139.177L296.604 168.399C297.217 168.749 297.558 169.378 297.558 170.077Z" fill="#1AE5FF"/>
</g>
<g opacity="0.53">
<path opacity="0.53" d="M277.17 183.71V186.297C277.17 187.835 275.533 188.744 274.306 187.974L245.325 170.846C244.712 170.497 244.371 169.867 244.371 169.168V166.582C244.371 165.044 246.007 164.135 247.235 164.904L276.215 182.032C276.761 182.312 277.17 183.011 277.17 183.71Z" fill="#1AE5FF"/>
</g>
<g opacity="0.67">
<path opacity="0.67" d="M289.853 178.397V180.983C289.853 182.521 288.217 183.43 286.989 182.661L245.325 157.982C244.712 157.633 244.371 157.004 244.371 156.305V153.718C244.371 152.18 246.007 151.271 247.235 152.04L288.898 176.719C289.512 176.998 289.853 177.697 289.853 178.397Z" fill="#1AE5FF"/>
</g>
</g>
<g opacity="0.67">
<g opacity="0.67">
<path opacity="0.67" d="M62.2371 116.805V118.133C62.2371 118.902 63.0553 119.391 63.7372 119.042L69.8061 115.406C70.0788 115.197 70.2834 114.917 70.2834 114.498V113.169C70.2834 112.4 69.4651 111.911 68.7832 112.26L62.7144 115.896C62.4416 116.106 62.2371 116.455 62.2371 116.805Z" fill="#1AE5FF"/>
</g>
<g opacity="0.67">
<path opacity="0.67" d="M42.9395 134.772V136.1C42.9395 136.869 43.7577 137.359 44.4396 137.009L69.806 121.978C70.147 121.768 70.2833 121.489 70.2833 121.069V119.741C70.2833 118.972 69.4651 118.483 68.7832 118.832L43.485 133.933C43.144 134.073 42.9395 134.422 42.9395 134.772Z" fill="#1AE5FF"/>
</g>
<g opacity="0.53">
<path opacity="0.53" d="M53.4406 141.763V143.091C53.4406 143.86 54.2588 144.35 54.9407 144L69.8742 135.191C70.1469 134.982 70.3515 134.702 70.3515 134.282V132.954C70.3515 132.185 69.5332 131.696 68.8513 132.045L53.9861 140.924C53.6451 141.064 53.4406 141.413 53.4406 141.763Z" fill="#1AE5FF"/>
</g>
<g opacity="0.67">
<path opacity="0.67" d="M46.8947 139.036V140.365C46.8947 141.134 47.7129 141.623 48.3948 141.274L69.8063 128.55C70.1472 128.34 70.2836 128.06 70.2836 127.641V126.313C70.2836 125.544 69.4653 125.054 68.7834 125.404L47.372 138.128C47.0992 138.337 46.8947 138.687 46.8947 139.036Z" fill="#1AE5FF"/>
</g>
</g>
<g opacity="0.46">
<path opacity="0.46" d="M140.655 116.944C143.041 118.343 145.019 121.838 145.019 124.705C145.019 127.571 143.041 128.689 140.655 127.291L100.968 103.801C98.5819 102.403 96.6044 98.9073 96.6044 96.0409C96.6044 93.1746 98.5819 92.056 100.968 93.4542L140.655 116.944Z" fill="#1AE5FF"/>
</g>
<g opacity="0.46">
<path opacity="0.46" d="M291.217 241.457C292.921 242.435 294.217 244.882 294.217 246.84C294.217 248.797 292.853 249.636 291.148 248.657L263.532 232.298C261.827 231.319 260.531 228.872 260.531 226.915C260.531 224.957 261.895 224.118 263.6 225.167L291.217 241.457Z" fill="#1AE5FF"/>
</g>
<path d="M100.9 212.024C101.923 212.653 101.923 213.632 100.9 214.191L67.0102 234.396C65.9874 235.025 64.3508 235.025 63.328 234.396L42.3938 222.021C41.371 221.392 41.371 220.413 42.3938 219.854L76.2839 199.65C77.3068 199.02 78.9433 199.02 79.9662 199.65L100.9 212.024Z" fill="url(#paint13_linear)"/>
<g opacity="0.21">
<path opacity="0.21" d="M78.5343 259.354C68.7833 265.156 68.7151 274.454 78.398 280.257C88.0808 286.06 103.833 286.06 113.584 280.257C123.335 274.454 123.403 265.156 113.72 259.354C104.037 253.621 88.2854 253.621 78.5343 259.354Z" fill="url(#paint14_linear)"/>
</g>
<path d="M90.3994 272.497C90.3994 272.497 85.8989 273.685 84.1942 273.685C82.4212 273.685 84.1942 275.503 87.1263 275.713C90.0584 275.923 92.786 276.132 93.3315 275.293C93.9452 274.524 93.1951 272.217 93.1951 272.217L90.3994 272.497Z" fill="#5155D4"/>
<path d="M102.878 268.302C102.878 268.302 98.3774 269.491 96.6727 269.491C94.8998 269.491 96.6727 271.309 99.6048 271.518C102.537 271.728 105.265 271.938 105.81 271.099C106.424 270.33 105.674 268.023 105.674 268.023L102.878 268.302Z" fill="#5155D4"/>
<path d="M103.833 218.666C103.833 218.666 105.469 264.387 105.742 269.141C105.742 269.141 104.446 270.19 102.878 269.701C102.878 269.701 97.6274 239.709 96.8091 232.019C96.059 224.258 94.7634 221.602 94.7634 221.602L103.833 218.666Z" fill="#343996"/>
<path d="M87.1943 221.392C87.1943 221.392 85.6259 247.748 90.331 273.336C90.331 273.336 91.8994 274.105 93.1949 272.287C93.1949 272.287 96.0589 227.544 96.809 221.112C97.6272 214.68 89.3082 220.064 87.1943 221.392Z" fill="#343996"/>
<path d="M94.2178 241.596C94.2178 241.596 96.809 234.116 99.1274 230.131C101.446 226.146 100.969 220.273 100.969 220.273L92.1039 221.042L94.2178 241.596Z" fill="#343996"/>
<path d="M85.2169 195.245L77.5115 191.4C77.5115 191.4 75.1931 189.023 74.5794 188.533C73.9657 188.044 70.1471 187.065 69.397 187.205C68.7151 187.345 67.4195 188.394 67.7605 188.673C68.1014 188.883 71.3745 190.701 71.5109 191.4C71.6473 192.099 70.3517 193.078 70.829 193.567C71.3063 194.056 72.3292 193.078 73.0792 193.078C73.7611 193.078 75.7386 194.056 75.7386 194.056L83.2394 198.531L85.2169 195.245Z" fill="#FF9D6F"/>
<path d="M101.719 187.555C101.719 187.555 100.287 185.947 97.9684 189.023C95.6499 192.099 93.6724 196.643 90.3994 196.224C87.1263 195.804 81.8075 193.148 81.8075 193.148C81.8075 193.148 79.4891 194.756 79.83 197.133C79.83 197.133 87.399 202.865 92.445 202.586C97.491 202.306 102.946 196.993 104.174 193.288C105.333 189.582 101.719 187.555 101.719 187.555Z" fill="#FF3D9D"/>
<path d="M86.1034 221.322C86.5807 223.699 93.1951 224.887 97.0819 224.258C100.969 223.629 105.128 221.671 104.992 217.057C104.992 217.057 105.606 198.601 105.606 194.965C105.606 191.33 103.355 188.673 103.355 188.673C103.355 188.673 101.173 186.157 94.3543 187.555C94.3543 187.555 88.7628 188.813 86.2398 193.008C86.2398 193.008 84.4669 197.622 85.0806 207.34C85.6261 216.987 86.1034 221.322 86.1034 221.322Z" fill="#FF3D9D"/>
<path d="M99.673 182.382C99.673 182.382 99.0593 185.877 99.673 187.555C99.7412 188.394 96.3317 191.051 93.2632 190.352C91.4903 189.932 91.5585 189.023 91.5585 189.023C91.5585 189.023 93.0586 186.506 92.8541 184.059C92.7177 181.682 97.6273 181.892 99.673 182.382Z" fill="#FF7C40"/>
<path d="M88.2175 175.32C88.2175 179.935 91.8316 183.64 96.332 183.64C100.833 183.64 104.447 179.935 104.447 175.32C104.447 170.706 100.833 167.001 96.332 167.001C91.8316 167.001 88.2175 170.706 88.2175 175.32Z" fill="#FF9D6F"/>
<path d="M88.2174 175.88C88.2174 175.88 88.1492 184.199 89.9221 185.877C91.695 187.555 94.4226 184.269 98.7867 183.29C103.151 182.172 95.2409 173.503 95.2409 173.503L88.2174 175.88Z" fill="#FF9D6F"/>
<path d="M78.1252 203.145C78.1252 203.145 66.7376 197.971 65.2375 197.063C63.7373 196.154 62.5781 192.938 61.9644 192.239C61.4189 191.54 58.8277 190.002 58.8959 190.701C58.964 191.4 60.3278 192.658 60.3278 192.658C60.3278 192.658 59.3732 194.336 59.1686 195.385C58.964 196.433 60.396 198.601 61.1461 199.23C61.8962 199.789 63.7373 199.999 63.7373 199.999C63.7373 199.999 73.011 206.361 74.5112 206.431C76.1477 206.571 78.3298 205.662 78.1252 203.145Z" fill="#FF9D6F"/>
<path d="M88.2854 192.588C88.2854 192.588 86.8534 190.98 84.535 194.056C82.2166 197.133 80.2391 201.677 76.966 201.257C73.6929 200.838 68.3741 198.181 68.3741 198.181C68.3741 198.181 66.0557 199.789 66.3967 202.166C66.3967 202.166 73.9657 207.899 79.0117 207.619C84.0577 207.34 89.5128 202.026 90.7402 198.321C91.8994 194.546 88.2854 192.588 88.2854 192.588Z" fill="#FF3D9D"/>
<path d="M91.4219 168.259C91.4219 168.259 88.4897 168.889 87.6033 173.433C88.0124 175.39 90.6718 173.852 91.6946 176.439C92.7175 179.026 93.3312 179.795 93.3312 179.795L93.9449 179.515C93.9449 179.515 93.9449 177.418 94.8313 177.418C95.7178 177.418 95.9906 179.865 95.445 180.913C94.9677 181.962 93.8085 182.451 93.8085 182.451C93.8085 182.451 95.1041 184.689 95.7178 184.898C96.3315 185.178 98.6499 184.619 99.5364 184.269C100.423 183.85 102.059 182.032 103.355 180.005C104.651 177.907 105.742 174.272 104.992 171.825C104.241 169.378 102.469 168.679 102.469 168.679C102.469 168.679 101.446 167.281 99.6728 166.582C97.8998 166.092 94.6268 165.813 91.4219 168.259Z" fill="#843837"/>
<path d="M90.8083 173.782C90.8083 173.782 92.7857 176.159 91.7629 179.585C90.8083 183.011 92.172 183.011 93.5358 187.415C94.8996 191.819 91.0128 196.993 94.695 203.425C98.3773 209.787 108.333 209.018 112.833 202.656C117.334 196.294 110.31 191.68 110.106 185.877C109.901 180.074 114.402 176.649 109.356 172.664C104.31 168.679 102.128 164.274 95.9224 166.092C89.649 167.77 88.0807 170.986 90.8083 173.782Z" fill="#843837"/>
<path d="M33.7627 71.9849L28.6064 55.1831H28.4746C28.6602 58.6011 28.7529 60.8813 28.7529 62.0239V71.9849H24.6953V50.5688H30.877L35.9453 66.9458H36.0332L41.4092 50.5688H47.5908V71.9849H43.3574V61.8481C43.3574 61.3696 43.3623 60.8179 43.3721 60.1929C43.3916 59.5679 43.46 57.9077 43.5771 55.2124H43.4453L37.9229 71.9849H33.7627ZM55.6041 63.7671C55.6041 65.3882 55.8678 66.6138 56.3951 67.4438C56.9322 68.2739 57.8014 68.689 59.0025 68.689C60.1939 68.689 61.0484 68.2788 61.566 67.4585C62.0934 66.6284 62.357 65.3979 62.357 63.7671C62.357 62.146 62.0934 60.9302 61.566 60.1196C61.0387 59.3091 60.1744 58.9038 58.9732 58.9038C57.7818 58.9038 56.9225 59.3091 56.3951 60.1196C55.8678 60.9204 55.6041 62.1362 55.6041 63.7671ZM66.9273 63.7671C66.9273 66.4331 66.2242 68.5181 64.818 70.022C63.4117 71.5259 61.4537 72.2778 58.9439 72.2778C57.3717 72.2778 55.985 71.936 54.7838 71.2524C53.5826 70.5591 52.6598 69.5679 52.0152 68.2788C51.3707 66.9897 51.0484 65.4858 51.0484 63.7671C51.0484 61.0913 51.7467 59.0112 53.1432 57.5269C54.5396 56.0425 56.5025 55.3003 59.0318 55.3003C60.6041 55.3003 61.9908 55.6421 63.192 56.3257C64.3932 57.0093 65.316 57.9907 65.9605 59.27C66.6051 60.5493 66.9273 62.0483 66.9273 63.7671ZM79.1301 55.3003C81.0637 55.3003 82.5773 56.0571 83.6711 57.5708C84.7648 59.0747 85.3117 61.1401 85.3117 63.7671C85.3117 66.4722 84.7453 68.5669 83.6125 70.0513C82.4895 71.5356 80.9562 72.2778 79.0129 72.2778C77.0891 72.2778 75.5803 71.5796 74.4865 70.1831H74.1789L73.4318 71.9849H70.0187V49.1919H74.4865V54.4946C74.4865 55.1685 74.4279 56.2476 74.3107 57.7319H74.4865C75.5314 56.1108 77.0793 55.3003 79.1301 55.3003ZM77.6945 58.8745C76.591 58.8745 75.7854 59.2163 75.2775 59.8999C74.7697 60.5737 74.5061 61.6919 74.4865 63.2544V63.7378C74.4865 65.4956 74.7453 66.7554 75.2629 67.5171C75.7902 68.2788 76.6203 68.6597 77.7531 68.6597C78.6711 68.6597 79.3986 68.2397 79.9357 67.3999C80.4826 66.5503 80.7561 65.3198 80.7561 63.7085C80.7561 62.0972 80.4826 60.8911 79.9357 60.0903C79.3889 59.2798 78.6418 58.8745 77.6945 58.8745ZM88.2127 51.3745C88.2127 49.9194 89.0232 49.1919 90.6443 49.1919C92.2654 49.1919 93.076 49.9194 93.076 51.3745C93.076 52.0679 92.8709 52.6099 92.4607 53.0005C92.0603 53.3813 91.4549 53.5718 90.6443 53.5718C89.0232 53.5718 88.2127 52.8394 88.2127 51.3745ZM92.8709 71.9849H88.4031V55.6079H92.8709V71.9849ZM101.441 71.9849H96.973V49.1919H101.441V71.9849ZM112.325 58.479C111.378 58.479 110.636 58.7817 110.099 59.3872C109.562 59.9829 109.254 60.8325 109.176 61.936H115.445C115.426 60.8325 115.138 59.9829 114.581 59.3872C114.024 58.7817 113.272 58.479 112.325 58.479ZM112.955 72.2778C110.318 72.2778 108.258 71.5503 106.773 70.0952C105.289 68.6401 104.547 66.5796 104.547 63.9136C104.547 61.1694 105.23 59.0503 106.598 57.5562C107.975 56.0522 109.874 55.3003 112.296 55.3003C114.61 55.3003 116.412 55.9595 117.701 57.2778C118.99 58.5962 119.635 60.4175 119.635 62.7417V64.9097H109.073C109.122 66.1792 109.498 67.1704 110.201 67.8833C110.904 68.5962 111.891 68.9526 113.16 68.9526C114.146 68.9526 115.079 68.8501 115.958 68.645C116.837 68.4399 117.755 68.1128 118.712 67.6636V71.1206C117.931 71.5112 117.096 71.7993 116.207 71.9849C115.318 72.1802 114.234 72.2778 112.955 72.2778ZM149.651 61.2476C149.651 64.7925 148.772 67.5171 147.014 69.4214C145.256 71.3257 142.737 72.2778 139.455 72.2778C136.174 72.2778 133.654 71.3257 131.897 69.4214C130.139 67.5171 129.26 64.7827 129.26 61.2183C129.26 57.6538 130.139 54.9341 131.897 53.0591C133.664 51.1743 136.194 50.2319 139.485 50.2319C142.776 50.2319 145.29 51.1792 147.029 53.0737C148.777 54.9683 149.651 57.6929 149.651 61.2476ZM134.021 61.2476C134.021 63.6401 134.475 65.4419 135.383 66.6528C136.291 67.8638 137.649 68.4692 139.455 68.4692C143.078 68.4692 144.89 66.062 144.89 61.2476C144.89 56.4233 143.088 54.0112 139.485 54.0112C137.678 54.0112 136.316 54.6216 135.398 55.8423C134.48 57.0532 134.021 58.855 134.021 61.2476ZM162.19 58.9624H158.323V71.9849H153.855V58.9624H151.394V56.8091L153.855 55.6079V54.4067C153.855 52.5415 154.314 51.1792 155.232 50.3198C156.15 49.4604 157.62 49.0308 159.641 49.0308C161.184 49.0308 162.556 49.2603 163.758 49.7192L162.615 53.0005C161.717 52.7173 160.887 52.5757 160.125 52.5757C159.49 52.5757 159.031 52.7661 158.748 53.147C158.465 53.5181 158.323 53.9966 158.323 54.5825V55.6079H162.19V58.9624ZM173.221 58.9624H169.354V71.9849H164.886V58.9624H162.425V56.8091L164.886 55.6079V54.4067C164.886 52.5415 165.345 51.1792 166.263 50.3198C167.181 49.4604 168.651 49.0308 170.672 49.0308C172.215 49.0308 173.587 49.2603 174.788 49.7192L173.646 53.0005C172.747 52.7173 171.917 52.5757 171.156 52.5757C170.521 52.5757 170.062 52.7661 169.779 53.147C169.496 53.5181 169.354 53.9966 169.354 54.5825V55.6079H173.221V58.9624ZM175.009 51.3745C175.009 49.9194 175.819 49.1919 177.44 49.1919C179.062 49.1919 179.872 49.9194 179.872 51.3745C179.872 52.0679 179.667 52.6099 179.257 53.0005C178.856 53.3813 178.251 53.5718 177.44 53.5718C175.819 53.5718 175.009 52.8394 175.009 51.3745ZM179.667 71.9849H175.199V55.6079H179.667V71.9849ZM190.42 72.2778C185.322 72.2778 182.773 69.48 182.773 63.8843C182.773 61.1011 183.466 58.9771 184.853 57.5122C186.24 56.0376 188.227 55.3003 190.815 55.3003C192.71 55.3003 194.409 55.6714 195.913 56.4136L194.594 59.8706C193.891 59.5874 193.237 59.3579 192.631 59.1821C192.026 58.9966 191.421 58.9038 190.815 58.9038C188.491 58.9038 187.329 60.5542 187.329 63.855C187.329 67.0581 188.491 68.6597 190.815 68.6597C191.674 68.6597 192.47 68.5474 193.203 68.3228C193.935 68.0884 194.668 67.7271 195.4 67.2388V71.062C194.677 71.521 193.945 71.8384 193.203 72.0142C192.47 72.1899 191.543 72.2778 190.42 72.2778ZM205.391 58.479C204.444 58.479 203.701 58.7817 203.164 59.3872C202.627 59.9829 202.32 60.8325 202.241 61.936H208.511C208.491 60.8325 208.203 59.9829 207.647 59.3872C207.09 58.7817 206.338 58.479 205.391 58.479ZM206.021 72.2778C203.384 72.2778 201.323 71.5503 199.839 70.0952C198.355 68.6401 197.613 66.5796 197.613 63.9136C197.613 61.1694 198.296 59.0503 199.663 57.5562C201.04 56.0522 202.94 55.3003 205.362 55.3003C207.676 55.3003 209.478 55.9595 210.767 57.2778C212.056 58.5962 212.7 60.4175 212.7 62.7417V64.9097H202.139C202.188 66.1792 202.564 67.1704 203.267 67.8833C203.97 68.5962 204.956 68.9526 206.226 68.9526C207.212 68.9526 208.145 68.8501 209.024 68.645C209.903 68.4399 210.821 68.1128 211.778 67.6636V71.1206C210.996 71.5112 210.161 71.7993 209.273 71.9849C208.384 72.1802 207.3 72.2778 206.021 72.2778Z" fill="black"/>
<path d="M24.672 32.8677H28.848V31.8277H24.672V29.1077H29.072V28.0357H23.408V37.1877H24.352C26.672 37.1877 28.048 37.1397 29.712 36.8197L29.584 35.7317C28.048 36.0357 26.768 36.0997 24.672 36.0997V32.8677ZM33.792 26.3877V32.1477H31.888V26.7077H30.64V40.0357H31.888V33.2197H33.792V40.7397H35.04V26.3877H33.792ZM44.2867 31.9557C44.6547 30.2597 44.6547 28.9637 44.6547 28.0517V27.2837H37.5507V28.3397H43.3748C43.3748 29.2037 43.3428 30.3237 43.0068 31.8437L44.2867 31.9557ZM45.6628 32.8517C44.1908 33.0437 42.5747 33.1397 41.0068 33.2037V30.4037H39.7108V33.2357C38.6387 33.2677 37.5827 33.2677 36.6707 33.2677L36.8147 34.3557C39.3907 34.3557 42.7828 34.2757 45.7587 33.8117L45.6628 32.8517ZM43.3108 39.6677C41.1828 39.6677 39.8707 39.0917 39.8707 38.0997C39.8707 37.1237 41.1828 36.5477 43.3108 36.5477C45.4388 36.5477 46.7508 37.1237 46.7508 38.0997C46.7508 39.0917 45.4388 39.6677 43.3108 39.6677ZM43.3108 35.5237C40.3668 35.5237 38.5427 36.4677 38.5427 38.0997C38.5427 39.7637 40.3668 40.7077 43.3108 40.7077C46.2548 40.7077 48.0788 39.7637 48.0788 38.0997C48.0788 36.4677 46.2548 35.5237 43.3108 35.5237ZM47.9348 30.3077V26.3717H46.6228V35.3317H47.9348V31.3957H49.9828V30.3077H47.9348ZM60.6375 29.3477C60.6375 31.1237 60.6375 33.2677 60.0615 36.1957L61.3735 36.3397C61.9335 33.2357 61.9335 31.1717 61.9335 29.3477V27.9237H61.3255V27.9077H52.0935V28.9797H60.6375V29.3477ZM50.7015 37.5557V38.6437H63.6775V37.5557H50.7015ZM74.6522 29.0117H66.2682V32.3397H76.2522V31.3317H67.5642V29.9877H75.9482V26.6917H66.2362V27.6997H74.6522V29.0117ZM74.6522 39.5237H67.6282V38.0357H74.6522V39.5237ZM74.6522 37.0437H67.6282V35.4597H66.3162V40.5477H75.9482V35.4597H74.6522V37.0437ZM64.5882 33.4917V34.5477H70.4442V36.3237H71.7562V34.5477H77.6122V33.4917H64.5882Z" fill="black"/>
</g>
<defs>
<linearGradient id="paint0_linear" x1="270.145" y1="-4.74307" x2="317.426" y2="172.856" gradientUnits="userSpaceOnUse">
<stop stop-color="#1AE5FF"/>
<stop offset="0.2589" stop-color="#64E8F9"/>
<stop offset="0.7043" stop-color="#EAEEEE"/>
</linearGradient>
<linearGradient id="paint1_linear" x1="43.4508" y1="285.671" x2="89.2488" y2="457.698" gradientUnits="userSpaceOnUse">
<stop stop-color="#1AE5FF"/>
<stop offset="0.2589" stop-color="#64E8F9"/>
<stop offset="0.7043" stop-color="#EAEEEE"/>
</linearGradient>
<linearGradient id="paint2_linear" x1="54.7945" y1="186.119" x2="65.0159" y2="186.119" gradientUnits="userSpaceOnUse">
<stop stop-color="#CC68FF"/>
<stop offset="1" stop-color="#FB8E31"/>
</linearGradient>
<linearGradient id="paint3_linear" x1="218.896" y1="270.212" x2="188.74" y2="51.6219" gradientUnits="userSpaceOnUse">
<stop stop-color="#1AE5FF"/>
<stop offset="0.2589" stop-color="#64E8F9"/>
<stop offset="0.7043" stop-color="#EAEEEE"/>
</linearGradient>
<linearGradient id="paint4_linear" x1="277.531" y1="212.023" x2="265.82" y2="212.023" gradientUnits="userSpaceOnUse">
<stop stop-color="#5155D4"/>
<stop offset="1" stop-color="#45F7FF"/>
</linearGradient>
<linearGradient id="paint5_linear" x1="127.822" y1="174.491" x2="272.853" y2="174.491" gradientUnits="userSpaceOnUse">
<stop stop-color="#7F5EFF"/>
<stop offset="0.2423" stop-color="#8665FF"/>
<stop offset="0.5952" stop-color="#9978FF"/>
<stop offset="0.94" stop-color="#B391FF"/>
</linearGradient>
<linearGradient id="paint6_linear" x1="197.439" y1="113.811" x2="205.245" y2="210.718" gradientUnits="userSpaceOnUse">
<stop stop-color="#5155D4"/>
<stop offset="1" stop-color="#45F7FF"/>
</linearGradient>
<linearGradient id="paint7_linear" x1="193.55" y1="187.608" x2="193.55" y2="221.397" gradientUnits="userSpaceOnUse">
<stop stop-color="#7F5EFF"/>
<stop offset="0.2423" stop-color="#8665FF"/>
<stop offset="0.5952" stop-color="#9978FF"/>
<stop offset="0.94" stop-color="#B391FF"/>
</linearGradient>
<linearGradient id="paint8_linear" x1="153.7" y1="223.306" x2="133.446" y2="206.087" gradientUnits="userSpaceOnUse">
<stop stop-color="#1AE5FF"/>
<stop offset="0.2589" stop-color="#64E8F9"/>
<stop offset="0.7043" stop-color="#EAEEEE"/>
</linearGradient>
<linearGradient id="paint9_linear" x1="133.338" y1="289.531" x2="181.806" y2="289.531" gradientUnits="userSpaceOnUse">
<stop stop-color="#5155D4"/>
<stop offset="1" stop-color="#45F7FF"/>
</linearGradient>
<linearGradient id="paint10_linear" x1="151.342" y1="269.955" x2="156.035" y2="174.366" gradientUnits="userSpaceOnUse">
<stop stop-color="#1AE5FF"/>
<stop offset="0.2589" stop-color="#64E8F9"/>
<stop offset="0.7043" stop-color="#EAEEEE"/>
</linearGradient>
<linearGradient id="paint11_linear" x1="165.401" y1="268.235" x2="170.094" y2="172.647" gradientUnits="userSpaceOnUse">
<stop stop-color="#1AE5FF"/>
<stop offset="0.2589" stop-color="#64E8F9"/>
<stop offset="0.7043" stop-color="#EAEEEE"/>
</linearGradient>
<linearGradient id="paint12_linear" x1="175.694" y1="233.724" x2="178.133" y2="215.609" gradientUnits="userSpaceOnUse">
<stop stop-color="#1AE5FF"/>
<stop offset="0.2589" stop-color="#64E8F9"/>
<stop offset="0.7043" stop-color="#EAEEEE"/>
</linearGradient>
<linearGradient id="paint13_linear" x1="51.7784" y1="235.294" x2="89.9007" y2="201.856" gradientUnits="userSpaceOnUse">
<stop stop-color="#92F3FF"/>
<stop offset="1" stop-color="white"/>
</linearGradient>
<linearGradient id="paint14_linear" x1="71.2053" y1="269.819" x2="120.993" y2="269.819" gradientUnits="userSpaceOnUse">
<stop stop-color="#5155D4"/>
<stop offset="1" stop-color="#45F7FF"/>
</linearGradient>
</defs>
</svg>
