<svg width="328" height="328" viewBox="0 0 328 328" fill="none" xmlns="http://www.w3.org/2000/svg">
<mask id="mask0" mask-type="alpha" maskUnits="userSpaceOnUse" x="0" y="0" width="328" height="328">
<rect width="328" height="328" fill="#C4C4C4"/>
</mask>
<g mask="url(#mask0)">
<rect width="328" height="328" fill="#D7EAF2"/>
<path d="M233.141 173.907C233.141 173.907 218.537 203.179 203.69 223.401C197.784 231.442 191.848 238.045 186.767 240.812C181.807 243.502 177.596 247.69 174.117 252.337C165.113 264.351 160.948 279.407 160.948 279.407L122.997 221.903C122.997 221.903 124.294 165.684 128.841 156.283C135.479 142.572 138.684 114.89 141.247 109.372C143.14 105.275 148.541 84.1662 149.06 82.6071C149.289 81.9345 151.09 80.9104 153.425 80.9104C155.302 80.9104 158.476 82.7294 159.284 86.459C163.343 105.306 158.46 117.733 158.506 118.299C159.94 132.789 155.637 143.535 158.659 146.378C158.765 146.485 158.979 146.439 159.269 146.24C164.503 142.878 196.976 95.4622 200.974 94.438C205.216 93.3375 233.141 173.907 233.141 173.907Z" fill="#FFB27D"/>
<path d="M172.377 268.02C172.377 268.02 171.858 293.577 170.378 328H74.6544C96.5367 281.257 115.565 241.927 115.565 241.927C115.565 241.927 170.073 243.578 172.377 268.02Z" fill="#F99746"/>
<path d="M266.315 74.827L254.565 92.0843L243.029 109.021C242.327 109.877 241.518 110.167 240.633 110.075C237.871 109.815 234.438 105.811 231.768 103.594L231.493 103.365C227.968 100.445 227.48 95.1872 230.394 91.6563L248.034 70.333L253.268 64.0049C256.183 60.4739 261.432 59.9848 264.957 62.9043L265.232 63.1336C268.742 66.0225 269.23 71.296 266.315 74.827Z" fill="#FFB27D"/>
<path d="M254.565 92.0842L243.029 109.021C242.327 109.876 241.518 110.167 240.633 110.075L248.019 70.333C248.049 70.547 249.301 88.3851 254.565 92.0842Z" fill="#EFA26F"/>
<path d="M203.69 223.402C197.784 231.442 191.848 238.045 186.767 240.812C181.807 243.502 177.596 247.69 174.117 252.337C170.119 250.472 165.556 248.271 161.1 246.116C155.668 243.471 155.469 235.752 160.78 232.894C160.825 232.863 160.887 232.833 160.932 232.802C165.907 229.944 171.019 219.871 171.019 219.871L203.69 223.402Z" fill="#EFA26F"/>
<path d="M148.816 83.4631L145.734 95.9055C145.734 95.9055 148.419 97.006 150.144 96.1501C151.868 95.2941 153.287 84.1357 148.816 83.4631Z" fill="#FFC197"/>
<path d="M237.246 229.271H171.126C164.625 229.271 159.299 223.937 159.299 217.425V71.8462C159.299 65.3346 164.625 60 171.126 60H237.246C243.746 60 249.072 65.3346 249.072 71.8462V217.425C249.072 223.937 243.746 229.271 237.246 229.271Z" fill="#2B478B"/>
<path d="M244.616 72.9621V215.163C244.616 219.993 240.71 223.937 235.918 223.937H172.438C167.662 223.937 163.74 219.993 163.74 215.163V72.9621C163.74 68.1319 167.647 64.1882 172.438 64.1882H235.933C240.71 64.1882 244.616 68.1472 244.616 72.9621Z" fill="#C0D8FB"/>
<path d="M235.934 64.1882L173.232 223.952H172.454C167.677 223.952 163.756 220.008 163.756 215.178V72.9621C163.756 68.1319 167.662 64.1882 172.454 64.1882H235.934Z" fill="#CBE1FD"/>
<path d="M217.454 69.4771H190.917C188.751 69.4771 186.996 67.7193 186.996 65.5487V64.9373C186.996 62.7668 188.766 60.9937 190.933 60.9937H217.469C219.636 60.9937 221.406 62.7668 221.406 64.9373V65.5487C221.391 67.7193 219.621 69.4771 217.454 69.4771Z" fill="#2B478B"/>
<path d="M260.471 139.989L258.716 140.661L246.936 145.14C246.661 145.247 246.386 145.339 246.096 145.4C242.19 146.409 238.039 144.33 236.574 140.478L236.406 140.019C234.835 135.892 236.925 131.215 241.061 129.64L252.048 125.452L252.841 125.147L254.596 124.474C258.716 122.9 263.385 124.994 264.942 129.136L265.11 129.595C266.697 133.752 264.591 138.43 260.471 139.989Z" fill="#FFB27D"/>
<path d="M250.903 140.264C248.935 141.013 245.379 142.343 243.472 142.602C242.937 142.679 241.946 142.388 241.015 141.364C240.465 140.753 239.931 139.882 239.535 138.689C239.351 138.124 239.199 137.558 239.138 136.977C239.062 136.305 239.077 135.617 239.199 134.944C239.306 134.333 239.718 133.783 240.328 133.492C240.328 133.492 240.328 133.492 240.343 133.492C242.373 132.529 245.104 131.337 247.485 130.68C249.133 130.221 250.811 130.955 251.33 132.407L251.574 133.08L252.841 136.549C253.36 138.017 252.505 139.652 250.903 140.264Z" fill="#FFD3B6"/>
<path d="M250.903 140.264C248.935 141.013 245.379 142.343 243.472 142.603C242.938 142.679 241.946 142.389 241.015 141.364C240.923 141.135 240.832 140.891 240.74 140.631C240.557 140.065 240.404 139.5 240.343 138.919C240.267 138.246 240.282 137.558 240.404 136.886C240.511 136.274 240.923 135.724 241.534 135.434C241.534 135.434 241.534 135.434 241.549 135.434C243.578 134.471 246.31 133.278 248.69 132.621C249.743 132.331 250.811 132.529 251.59 133.08L252.856 136.55C253.36 138.017 252.505 139.653 250.903 140.264Z" fill="#FFC197"/>
<path d="M255.115 156.589L246.02 159.065C243.258 159.814 240.389 158.178 239.626 155.412L239.351 154.388C238.604 151.621 240.237 148.747 242.999 147.983L252.093 145.507C254.855 144.758 257.724 146.393 258.487 149.16L258.762 150.184C259.525 152.951 257.877 155.84 255.115 156.589Z" fill="#FFB27D"/>
<path d="M250.201 156.146C248.538 156.589 245.516 157.384 243.929 157.46C243.349 157.491 242.205 157.002 241.457 155.488C241.274 155.121 241.122 154.693 241 154.204C240.893 153.761 240.801 153.318 240.801 152.859C240.786 152.324 240.862 151.804 241 151.3C241.137 150.841 241.518 150.444 242.022 150.261C242.022 150.261 242.022 150.261 242.037 150.261C243.761 149.649 246.096 148.916 248.11 148.564C249.499 148.319 250.811 148.992 251.147 150.138L251.376 150.964L252.078 153.425C252.398 154.571 251.574 155.779 250.201 156.146Z" fill="#FFD3B6"/>
<path d="M250.201 156.145C248.538 156.589 245.516 157.383 243.929 157.46C243.349 157.49 242.205 157.001 241.457 155.488C241.35 155.075 241.289 154.663 241.274 154.235C241.259 153.715 241.335 153.18 241.473 152.676C241.61 152.217 241.991 151.82 242.495 151.636C242.495 151.636 242.495 151.636 242.51 151.636C244.235 151.025 246.569 150.291 248.584 149.939C249.728 149.741 250.842 150.169 251.361 150.964L252.063 153.425C252.398 154.571 251.574 155.779 250.201 156.145Z" fill="#FFC197"/>
<path d="M106.242 261.294C106.242 261.294 124.95 279.239 137.555 286.164L147.107 279.377V289.389C147.107 289.389 165.892 292.721 171.812 289.389V262.104L119.075 235.63L106.242 261.294Z" fill="#ED7D2B"/>
<path d="M175.795 287.234C168.532 288.732 152.875 283.015 152.875 283.015L155.408 258.574L137.707 278.873C128.704 275.51 114.619 266.751 106.257 261.31C102.091 258.589 99.3445 256.693 99.3445 256.693C111.155 237.663 123.027 219.855 123.027 219.855C126.507 226.841 134.762 232.909 143.704 237.755C158.567 245.825 175.353 250.533 175.353 250.533C175.337 265.055 175.795 287.234 175.795 287.234Z" fill="#DCEAFF"/>
<path d="M260.181 122.548C260.12 122.579 260.059 122.594 259.983 122.609L248.065 125.666C242.831 127.012 237.414 124.168 236.025 119.354L235.323 116.893C233.995 112.261 236.849 107.431 241.717 105.856L245.654 104.848L253.635 102.799C258.869 101.454 264.286 104.297 265.674 109.112L266.376 111.573C267.689 116.144 264.927 120.913 260.181 122.548Z" fill="#FFB27D"/>
<path d="M254.718 119.216L248.935 121.83C248.919 121.83 248.919 121.83 248.904 121.845C248.675 121.906 248.431 121.952 248.202 121.983C248.111 121.998 248.004 122.013 247.912 122.013C247.866 122.013 247.836 122.013 247.79 122.013C247.149 121.998 246.722 121.31 246.997 120.714C247.546 119.522 247.699 118.146 247.317 116.786L247.18 116.281V116.266L246.737 114.615C246.386 113.301 245.623 112.2 244.631 111.405C244.509 111.314 244.387 111.222 244.265 111.13C243.121 110.335 243.411 108.532 244.753 108.165C244.769 108.165 244.784 108.165 244.784 108.149L251.132 107.186C252.704 106.758 254.214 107.966 254.642 109.54L255.145 111.421L256.229 115.425C256.671 117.015 256.29 118.788 254.718 119.216Z" fill="#FFD3B6"/>
<path d="M254.718 119.216L248.935 121.83C248.919 121.83 248.919 121.83 248.904 121.845C248.767 121.876 248.339 121.937 247.79 122.029C247.149 122.013 246.722 121.325 246.997 120.729C247.546 119.537 247.698 118.161 247.317 116.801L247.18 116.297V116.281L246.737 114.63C246.386 113.316 245.623 112.215 244.631 111.42C244.83 111.115 245.135 110.885 245.547 110.778C245.562 110.778 245.577 110.778 245.577 110.763L251.925 109.8C253.253 109.433 254.535 110.243 255.16 111.436L256.244 115.441C256.671 117.015 256.29 118.788 254.718 119.216Z" fill="#FFC197"/>
<path d="M159.3 184.622C159.3 184.622 156.705 161.893 154.31 157.46C151.914 153.027 149.884 144.147 153.577 137.559C157.27 130.955 158.537 118.268 158.537 118.268C159.971 132.759 155.668 143.505 158.689 146.348C158.796 146.455 159.01 146.409 159.3 146.21V184.622Z" fill="#EFA26F"/>
<path d="M127.086 147.601H217.362C220.491 147.601 223.039 145.064 223.039 141.915V105.704C223.039 102.57 220.506 100.017 217.362 100.017H127.086C123.958 100.017 121.41 102.555 121.41 105.704V141.93C121.41 145.064 123.958 147.601 127.086 147.601Z" fill="#699DEE"/>
<path d="M217.988 93.9947H182.662C180.037 93.9947 177.916 91.8701 177.916 89.241V82.5306C177.916 79.9015 180.037 77.7769 182.662 77.7769H217.988C220.613 77.7769 222.734 79.9015 222.734 82.5306V89.241C222.734 91.8701 220.613 93.9947 217.988 93.9947Z" fill="#9ABFF6"/>
<path d="M216.447 212.931H175.704C172.56 212.931 170.027 210.378 170.027 207.245V198.624C170.027 195.475 172.575 192.938 175.704 192.938H216.447C219.59 192.938 222.123 195.49 222.123 198.624V207.245C222.123 210.378 219.575 212.931 216.447 212.931Z" fill="#9ABFF6"/>
<path d="M232.271 184.622H193.786C190.032 184.622 186.98 181.565 186.98 177.805V162.718C186.98 158.958 190.032 155.901 193.786 155.901H232.271C236.025 155.901 239.077 158.958 239.077 162.718V177.805C239.077 181.565 236.04 184.622 232.271 184.622Z" fill="#F99746"/>
<path d="M341.072 328H270.863C267.49 325.738 250.018 313.8 242.785 304.888C241.259 303.008 235.643 286.729 231.34 273.538C228.655 265.284 226.457 258.237 226.091 256.617C225.969 256.051 225.877 254.935 225.831 253.422V253.407C225.648 248.011 225.893 237.586 226.152 229.317V229.286V229.179C226.167 228.813 226.182 228.461 226.182 228.109V228.094C226.182 228.064 226.182 228.018 226.182 227.987C226.228 226.55 226.274 225.19 226.32 223.967C226.427 220.895 226.518 218.571 226.564 217.669L226.579 217.241C226.686 217.18 230.074 215.377 234.575 218.632C235.659 219.427 236.666 221.323 237.597 223.799C238.192 225.389 238.741 227.208 239.245 229.118C241.213 236.486 242.632 245.306 243.38 247.66C244.601 251.481 258.945 268.249 259.845 269.288C259.86 269.304 259.876 269.319 259.891 269.334V242.845L249.057 213.802L244.601 201.88L242.388 195.888C242.388 195.888 238.955 190.247 236.086 183.461C234.835 180.495 233.675 177.301 232.958 174.274C232.79 173.556 232.637 172.837 232.53 172.134C232.103 169.566 232.073 167.197 232.668 165.271C233.721 161.832 236.071 161.174 237.887 161.251C238.07 161.251 238.253 161.266 238.436 161.297C238.619 161.312 238.787 161.358 238.955 161.404C239.275 161.495 239.58 161.618 239.855 161.786C240.313 162.061 240.725 162.428 241.03 162.886C241.03 162.886 242.556 164.889 244.616 167.579C245.974 169.352 247.546 171.416 249.072 173.418C251.773 176.98 254.275 180.297 254.977 181.259C258.701 186.518 268.742 203.653 268.742 203.653L280.491 204.142C282.353 204.218 284.123 204.967 285.481 206.236C289.662 210.149 298.666 218.602 299.78 219.855C299.78 220.268 306.784 223.646 312.186 226.642C316.046 228.278 323.401 234.086 323.401 234.086C324.927 235.431 326.087 236.776 326.667 238.06C329.185 243.548 336.021 291.315 339.287 314.931C340.34 322.512 341.011 327.602 341.072 328Z" fill="#FFB27D"/>
<path d="M268.742 203.653C268.742 203.653 279.622 221.445 281.071 222.255C282.506 223.05 288.121 224.181 288.762 222.255C289.388 220.314 268.742 203.653 268.742 203.653Z" fill="#EFA26F"/>
<path d="M323.447 234.132C323.432 234.117 323.417 234.101 323.386 234.086C323.386 234.086 316.031 228.278 312.17 226.642C307.211 223.891 300.894 220.818 299.902 220.008C301.061 221.323 309.164 230.525 312.277 231.213C315.024 231.824 321.25 233.521 323.447 234.132Z" fill="#EFA26F"/>
<path d="M259.906 269.319V242.829C259.906 242.829 266.193 253.361 266.666 259.124C267.155 264.902 264.057 274.256 259.906 269.319Z" fill="#EFA26F"/>
<path d="M237.124 172.134C236.208 170.56 234.56 167.701 233.995 166.096C233.843 165.638 233.858 164.736 234.407 163.773C234.743 163.192 235.262 162.596 236.055 162.061C236.422 161.816 236.803 161.587 237.215 161.434C237.688 161.266 238.192 161.174 238.695 161.159C239.153 161.159 239.626 161.419 239.962 161.893C241.045 163.483 242.434 165.653 243.365 167.61C244.021 168.97 243.807 170.529 242.861 171.217L242.419 171.538L240.16 173.189C239.214 173.892 237.871 173.418 237.124 172.134Z" fill="#FFD3B6"/>
<path d="M237.124 172.134C236.208 170.56 234.56 167.701 233.995 166.096C233.843 165.638 233.858 164.736 234.407 163.773C234.56 163.651 234.713 163.528 234.88 163.421C235.247 163.177 235.628 162.948 236.04 162.795C236.513 162.627 237.017 162.535 237.52 162.52C237.978 162.52 238.451 162.779 238.787 163.253C239.87 164.843 241.259 167.013 242.19 168.97C242.602 169.841 242.678 170.789 242.419 171.538L240.16 173.189C239.214 173.892 237.871 173.418 237.124 172.134Z" fill="#FFC197"/>
<path d="M61.76 172.593H105.845C109.355 172.593 112.239 175.466 112.239 178.997V198.379C112.239 201.62 109.599 204.264 106.364 204.264H105.235L107.356 213.252L94.0188 204.264H61.3785C57.8688 204.264 55 201.391 55 197.875V179.38C55 175.65 58.0367 172.593 61.76 172.593Z" fill="#DFEBFD"/>
<path d="M60.585 186.655H106.547C107.173 186.655 107.691 186.136 107.691 185.509C107.691 184.882 107.173 184.363 106.547 184.363H60.585C59.9594 184.363 59.4406 184.882 59.4406 185.509C59.4406 186.151 59.9594 186.655 60.585 186.655Z" fill="#CBE1FD"/>
<path d="M60.585 191.761H106.547C107.173 191.761 107.691 191.241 107.691 190.614C107.691 189.988 107.173 189.468 106.547 189.468H60.585C59.9594 189.468 59.4406 189.988 59.4406 190.614C59.4406 191.256 59.9594 191.761 60.585 191.761Z" fill="#CBE1FD"/>
<path d="M60.585 196.866H106.547C107.173 196.866 107.691 196.346 107.691 195.72C107.691 195.093 107.173 194.573 106.547 194.573H60.585C59.9594 194.573 59.4406 195.093 59.4406 195.72C59.4406 196.362 59.9594 196.866 60.585 196.866Z" fill="#CBE1FD"/>
<path d="M85.6261 178.738H105.143C105.891 178.738 106.501 178.126 106.501 177.377C106.501 176.628 105.891 176.017 105.143 176.017H85.6261C84.8783 176.017 84.2679 176.628 84.2679 177.377C84.2679 178.126 84.8783 178.738 85.6261 178.738Z" fill="#CBE1FD"/>
<path d="M68.8558 178.738H80.6057C81.2008 178.738 81.6739 178.249 81.6739 177.668V177.087C81.6739 176.491 81.1855 176.017 80.6057 176.017H68.8558C68.2606 176.017 67.7876 176.506 67.7876 177.087V177.652C67.7876 178.249 68.2606 178.738 68.8558 178.738Z" fill="#CBE1FD"/>
<path d="M283.284 182.421L311.011 191.501L294.408 175.283L292.714 179.257L285.588 179.288L283.284 182.421Z" fill="#9EC3F6"/>
<path d="M311.011 191.501L289.495 175.115L266.498 169.841L311.011 191.501Z" fill="white"/>
<path d="M294.408 175.283L311.011 191.501L299.947 168.787L294.408 175.283Z" fill="white"/>
<path d="M119.777 78.954L93.851 82.6531L111.049 70.9138L111.934 74.674L118.236 75.8205L119.777 78.954Z" fill="#9EC3F6"/>
<path d="M93.851 82.653L115.428 71.5099L136.563 70.4399L93.851 82.653Z" fill="white"/>
<path d="M111.049 70.9138L93.851 82.653L107.173 64.2952L111.049 70.9138Z" fill="white"/>
<path d="M160.475 122.028C160.475 125.422 159.33 128.54 157.423 131.032C156.782 131.857 156.064 132.621 155.271 133.294C152.707 135.48 149.381 136.794 145.749 136.794C142.453 136.794 139.416 135.709 136.959 133.875C135.876 133.065 134.915 132.117 134.091 131.047C132.168 128.555 131.039 125.437 131.039 122.044C131.039 113.897 137.631 107.293 145.764 107.293C153.882 107.278 160.475 113.881 160.475 122.028Z" fill="white"/>
<path d="M151.654 128.999C151.609 128.953 151.578 128.907 151.532 128.876C151.364 128.739 151.197 128.662 150.51 128.555C150.159 128.494 149.686 128.433 148.999 128.341C148.999 128.341 148.847 128.326 148.77 128.326C148.725 128.326 148.664 128.311 148.602 128.311C148.404 128.204 148.358 127.394 148.358 126.538C148.358 126.476 148.358 126.415 148.358 126.339C148.358 126.018 148.374 125.697 148.389 125.406C148.389 125.391 148.389 125.376 148.389 125.361C148.816 125.391 149.091 125.391 149.091 125.391C149.869 125.33 150.357 123.221 150.54 121.524C150.54 121.524 150.922 120.592 150.922 119.583C150.922 119.017 150.8 118.421 150.418 117.962C150.22 117.718 150.037 117.565 149.869 117.473C149.823 117.427 149.777 117.382 149.716 117.336C148.984 116.526 146.024 113.484 144.07 115.242C144.025 115.073 143.384 113.086 140.317 113.744C140.5 113.728 141.873 113.591 142.27 114.141C142.209 114.111 141.034 113.591 140.271 114.049C139.92 114.263 139.706 114.691 139.584 115.165C139.584 115.165 139.584 115.165 139.584 115.18C139.584 115.18 139.584 115.18 139.584 115.196V115.211C139.569 115.272 139.554 115.333 139.538 115.394C139.538 115.41 139.538 115.41 139.538 115.425C139.538 115.425 139.538 115.425 139.538 115.44C139.447 115.914 139.447 116.373 139.508 116.602C139.63 117.076 140.469 118.513 141.034 118.513C141.247 118.513 141.476 118.436 141.675 118.36C141.583 118.62 141.507 118.895 141.446 119.201C140.851 122.013 142.712 124.153 143.674 123.618C144.299 123.282 144.757 124.367 144.757 124.367C144.666 126.431 144.101 127.76 143.689 128.097C143.536 128.112 143.216 128.158 142.804 128.219C142.804 128.219 141.385 128.372 140.301 128.846C140.286 128.846 140.286 128.846 140.271 128.861C140.027 128.968 139.813 129.075 139.66 129.197C139.584 129.258 139.508 129.335 139.462 129.411C139.431 129.442 139.416 129.472 139.401 129.503C139.035 130.191 138.668 131.23 138.318 132.453C140.393 134.012 142.987 134.929 145.779 134.929C148.862 134.929 151.67 133.813 153.852 131.964C153.074 130.237 152.158 129.365 151.654 128.999Z" fill="#2B478B"/>
<path d="M187.27 114.585H170.546C169.966 114.585 169.493 114.111 169.493 113.53V113.025C169.493 112.445 169.966 111.971 170.546 111.971H187.27C187.85 111.971 188.323 112.445 188.323 113.025V113.53C188.323 114.111 187.85 114.585 187.27 114.585Z" fill="white"/>
<path d="M187.484 124H170.347C169.874 124 169.493 123.618 169.493 123.144C169.493 122.67 169.874 122.288 170.347 122.288H187.484C187.957 122.288 188.339 122.67 188.339 123.144C188.323 123.618 187.942 124 187.484 124Z" fill="white"/>
<path d="M179.9 128.036H170.149C169.783 128.036 169.493 127.745 169.493 127.378V126.981C169.493 126.614 169.783 126.324 170.149 126.324H179.9C180.266 126.324 180.556 126.614 180.556 126.981V127.378C180.541 127.745 180.251 128.036 179.9 128.036Z" fill="white"/>
<path d="M199.753 128.036H184.005C183.562 128.036 183.181 127.669 183.181 127.21V127.149C183.181 126.706 183.547 126.324 184.005 126.324H199.753C200.195 126.324 200.577 126.691 200.577 127.149V127.21C200.577 127.669 200.211 128.036 199.753 128.036Z" fill="white"/>
<path d="M214.478 124H192.016C191.543 124 191.162 123.618 191.162 123.144C191.162 122.67 191.543 122.288 192.016 122.288H214.478C214.951 122.288 215.333 122.67 215.333 123.144C215.333 123.618 214.936 124 214.478 124Z" fill="white"/>
<path d="M187.484 132.071H170.347C169.874 132.071 169.493 131.689 169.493 131.215C169.493 130.741 169.874 130.359 170.347 130.359H187.484C187.957 130.359 188.339 130.741 188.339 131.215C188.323 131.689 187.942 132.071 187.484 132.071Z" fill="white"/>
<path d="M214.478 132.071H192.016C191.543 132.071 191.162 131.689 191.162 131.215C191.162 130.741 191.543 130.359 192.016 130.359H214.478C214.951 130.359 215.333 130.741 215.333 131.215C215.333 131.689 214.936 132.071 214.478 132.071Z" fill="white"/>
<path d="M203.583 114.584H191.574C191.07 114.584 190.673 114.172 190.673 113.683V112.888C190.673 112.383 191.085 111.986 191.574 111.986H203.583C204.086 111.986 204.483 112.399 204.483 112.888V113.698C204.483 114.187 204.071 114.584 203.583 114.584Z" fill="white"/>
<path d="M188.43 198.609H176.543C176.131 198.609 175.795 198.273 175.795 197.86V197.508C175.795 197.096 176.131 196.759 176.543 196.759H188.43C188.842 196.759 189.178 197.096 189.178 197.508V197.86C189.178 198.273 188.842 198.609 188.43 198.609Z" fill="#699DEE"/>
<path d="M188.583 203.362H176.406C176.07 203.362 175.795 203.087 175.795 202.751C175.795 202.415 176.07 202.139 176.406 202.139H188.583C188.918 202.139 189.193 202.415 189.193 202.751C189.178 203.087 188.903 203.362 188.583 203.362Z" fill="#699DEE"/>
<path d="M183.181 206.236H176.253C175.994 206.236 175.795 206.022 175.795 205.777V205.487C175.795 205.227 176.009 205.028 176.253 205.028H183.181C183.44 205.028 183.639 205.242 183.639 205.487V205.777C183.654 206.022 183.44 206.236 183.181 206.236Z" fill="#699DEE"/>
<path d="M197.311 206.236H186.111C185.79 206.236 185.531 205.976 185.531 205.655V205.609C185.531 205.288 185.79 205.028 186.111 205.028H197.311C197.632 205.028 197.891 205.288 197.891 205.609V205.655C197.891 205.976 197.632 206.236 197.311 206.236Z" fill="#699DEE"/>
<path d="M207.764 203.362H191.803C191.467 203.362 191.192 203.087 191.192 202.751C191.192 202.415 191.467 202.139 191.803 202.139H207.779C208.115 202.139 208.39 202.415 208.39 202.751C208.374 203.087 208.1 203.362 207.764 203.362Z" fill="#699DEE"/>
<path d="M188.583 209.11H176.406C176.07 209.11 175.795 208.834 175.795 208.498C175.795 208.162 176.07 207.887 176.406 207.887H188.583C188.918 207.887 189.193 208.162 189.193 208.498C189.178 208.834 188.903 209.11 188.583 209.11Z" fill="#699DEE"/>
<path d="M207.764 209.11H191.803C191.467 209.11 191.192 208.834 191.192 208.498C191.192 208.162 191.467 207.887 191.803 207.887H207.779C208.115 207.887 208.39 208.162 208.39 208.498C208.374 208.834 208.1 209.11 207.764 209.11Z" fill="#699DEE"/>
<path d="M200.027 198.609H191.482C191.131 198.609 190.841 198.318 190.841 197.967V197.386C190.841 197.034 191.131 196.744 191.482 196.744H200.027C200.378 196.744 200.668 197.034 200.668 197.386V197.967C200.668 198.318 200.378 198.609 200.027 198.609Z" fill="#699DEE"/>
<path d="M196.319 82.7756H184.432C184.02 82.7756 183.684 82.4393 183.684 82.0266V81.675C183.684 81.2623 184.02 80.926 184.432 80.926H196.319C196.731 80.926 197.067 81.2623 197.067 81.675V82.0266C197.067 82.424 196.731 82.7756 196.319 82.7756Z" fill="#699DEE"/>
<path d="M196.472 87.529H184.295C183.959 87.529 183.684 87.2538 183.684 86.9176C183.684 86.5813 183.959 86.3062 184.295 86.3062H196.472C196.808 86.3062 197.082 86.5813 197.082 86.9176C197.067 87.2538 196.792 87.529 196.472 87.529Z" fill="#699DEE"/>
<path d="M191.07 90.4026H184.142C183.883 90.4026 183.684 90.1886 183.684 89.9441V89.6536C183.684 89.3938 183.898 89.1951 184.142 89.1951H191.07C191.329 89.1951 191.528 89.4091 191.528 89.6536V89.9441C191.543 90.1886 191.329 90.4026 191.07 90.4026Z" fill="#699DEE"/>
<path d="M205.2 90.4026H194C193.679 90.4026 193.42 90.1428 193.42 89.8218V89.7759C193.42 89.4549 193.679 89.1951 194 89.1951H205.2C205.521 89.1951 205.78 89.4549 205.78 89.7759V89.8218C205.78 90.1428 205.521 90.4026 205.2 90.4026Z" fill="#699DEE"/>
<path d="M215.653 87.529H199.692C199.356 87.529 199.081 87.2538 199.081 86.9176C199.081 86.5813 199.356 86.3062 199.692 86.3062H215.669C216.004 86.3062 216.279 86.5813 216.279 86.9176C216.264 87.2538 215.989 87.529 215.653 87.529Z" fill="#699DEE"/>
<path d="M207.917 82.7752H199.371C199.02 82.7752 198.73 82.4848 198.73 82.1332V81.5524C198.73 81.2008 199.02 80.9104 199.371 80.9104H207.917C208.268 80.9104 208.558 81.2008 208.558 81.5524V82.1332C208.558 82.4848 208.268 82.7752 207.917 82.7752Z" fill="#699DEE"/>
<path d="M206.833 163.207H193.817C193.359 163.207 192.993 162.841 192.993 162.382V161.985C192.993 161.526 193.359 161.159 193.817 161.159H206.833C207.291 161.159 207.657 161.526 207.657 161.985V162.382C207.657 162.825 207.291 163.207 206.833 163.207Z" fill="#ED7D2B"/>
<path d="M206.986 168.42H193.649C193.283 168.42 192.993 168.114 192.993 167.762C192.993 167.396 193.298 167.105 193.649 167.105H206.986C207.352 167.105 207.642 167.411 207.642 167.762C207.657 168.114 207.352 168.42 206.986 168.42Z" fill="#ED7D2B"/>
<path d="M201.08 171.553H193.496C193.222 171.553 192.993 171.324 192.993 171.049V170.743C192.993 170.468 193.222 170.239 193.496 170.239H201.08C201.355 170.239 201.584 170.468 201.584 170.743V171.049C201.599 171.324 201.37 171.553 201.08 171.553Z" fill="#ED7D2B"/>
<path d="M216.554 171.553H204.3C203.949 171.553 203.659 171.263 203.659 170.911V170.865C203.659 170.514 203.949 170.223 204.3 170.223H216.554C216.905 170.223 217.195 170.514 217.195 170.865V170.911C217.179 171.263 216.905 171.553 216.554 171.553Z" fill="#ED7D2B"/>
<path d="M227.998 168.42H210.511C210.145 168.42 209.855 168.114 209.855 167.762C209.855 167.396 210.16 167.105 210.511 167.105H227.998C228.365 167.105 228.654 167.411 228.654 167.762C228.67 168.114 228.365 168.42 227.998 168.42Z" fill="#ED7D2B"/>
<path d="M206.986 174.702H193.649C193.283 174.702 192.993 174.396 192.993 174.045C192.993 173.678 193.298 173.387 193.649 173.387H206.986C207.352 173.387 207.642 173.693 207.642 174.045C207.657 174.396 207.352 174.702 206.986 174.702Z" fill="#ED7D2B"/>
<path d="M227.998 174.702H210.511C210.145 174.702 209.855 174.396 209.855 174.045C209.855 173.678 210.16 173.387 210.511 173.387H227.998C228.365 173.387 228.654 173.693 228.654 174.045C228.67 174.396 228.365 174.702 227.998 174.702Z" fill="#ED7D2B"/>
<path d="M206.986 177.973H193.649C193.283 177.973 192.993 177.668 192.993 177.316C192.993 176.949 193.298 176.659 193.649 176.659H206.986C207.352 176.659 207.642 176.964 207.642 177.316C207.657 177.668 207.352 177.973 206.986 177.973Z" fill="#ED7D2B"/>
<path d="M227.998 177.973H210.511C210.145 177.973 209.855 177.668 209.855 177.316C209.855 176.949 210.16 176.659 210.511 176.659H227.998C228.365 176.659 228.654 176.964 228.654 177.316C228.67 177.668 228.365 177.973 227.998 177.973Z" fill="#ED7D2B"/>
<path d="M219.529 163.208H210.175C209.794 163.208 209.473 162.887 209.473 162.504V161.878C209.473 161.496 209.794 161.175 210.175 161.175H219.529C219.911 161.175 220.231 161.496 220.231 161.878V162.504C220.231 162.887 219.911 163.208 219.529 163.208Z" fill="#ED7D2B"/>
<path d="M175.994 73.0843L175.093 73.7416L174.178 73.0996C174.376 72.8092 174.712 72.6257 175.093 72.6257C175.459 72.6257 175.795 72.8092 175.994 73.0843Z" fill="white"/>
<path d="M175.093 71.0361C174.178 71.0361 173.384 71.4947 172.896 72.1825L173.476 72.58C173.842 72.0755 174.437 71.7393 175.109 71.7393C175.78 71.7393 176.36 72.0603 176.726 72.58L177.306 72.1673C176.787 71.4794 175.994 71.0361 175.093 71.0361Z" fill="white"/>
<path d="M175.093 68.0249C173.17 68.0249 171.461 68.9879 170.439 70.4553L171.019 70.8527C171.919 69.5687 173.415 68.728 175.108 68.728C176.772 68.728 178.267 69.5534 179.168 70.8221L179.732 70.4094C178.694 68.9726 177.001 68.0249 175.093 68.0249Z" fill="white"/>
<path d="M175.093 69.6758C173.72 69.6758 172.514 70.3483 171.767 71.3878L172.346 71.7852C172.957 70.9292 173.964 70.3636 175.093 70.3636C176.222 70.3636 177.214 70.9139 177.825 71.7546L178.389 71.3419C177.657 70.3483 176.451 69.6758 175.093 69.6758Z" fill="white"/>
<path d="M170.012 169.092C170.012 170.422 170.454 171.645 171.217 172.623C171.461 172.944 171.751 173.25 172.057 173.51C172.362 173.77 172.697 173.999 173.064 174.198C173.872 174.641 174.803 174.885 175.795 174.885C177.031 174.885 178.176 174.503 179.107 173.846C179.152 173.815 179.198 173.785 179.244 173.739C179.671 173.418 180.053 173.051 180.373 172.623C181.121 171.645 181.579 170.422 181.579 169.092C181.579 165.898 178.984 163.299 175.795 163.299C172.591 163.299 170.012 165.898 170.012 169.092Z" fill="white"/>
<path d="M177.352 172.807L176.818 172.333C176.772 172.348 176.726 172.348 176.68 172.364C176.589 172.302 176.482 172.226 176.375 172.165C176.406 171.951 176.436 171.752 176.467 171.569C176.543 170.942 176.558 170.575 176.558 170.514C176.833 170.499 177.031 170.468 177.031 170.468C177.565 170.346 177.596 168.512 177.474 167.564C177.581 167.564 177.672 167.549 177.764 167.503C178.16 167.319 178.191 166.708 178.191 166.708C178.191 166.708 178.069 166.922 177.901 166.998C177.901 166.998 178.572 166.066 177.794 165.439C177.016 164.797 176.222 165.225 175.765 165.241C174.773 165.302 174.117 165.363 173.796 166.02C173.476 166.662 173.598 168.45 174.223 169.108C174.239 169.169 174.239 169.23 174.254 169.291C174.284 169.52 174.376 169.719 174.498 169.872C174.361 170.636 174.04 171.217 173.766 171.599C173.567 171.752 173.399 171.936 173.232 172.18L173.216 172.195C172.911 172.623 172.667 173.189 172.469 173.831C172.469 173.831 172.469 173.831 172.469 173.846C172.789 174.076 173.155 174.274 173.521 174.427C173.552 174.442 173.567 174.442 173.598 174.458H173.613C173.659 174.473 173.689 174.488 173.735 174.504C173.827 174.534 173.933 174.58 174.025 174.611C174.132 174.641 174.239 174.672 174.346 174.702C174.391 174.718 174.437 174.733 174.498 174.733C174.544 174.748 174.59 174.748 174.635 174.763H174.651C174.681 174.763 174.712 174.779 174.742 174.779C174.803 174.794 174.88 174.809 174.941 174.809C174.956 174.809 174.971 174.809 174.986 174.809C175.017 174.809 175.063 174.825 175.093 174.825C175.154 174.825 175.2 174.84 175.246 174.84C175.307 174.84 175.368 174.855 175.429 174.855C175.49 174.855 175.551 174.855 175.597 174.87C175.658 174.87 175.719 174.87 175.78 174.87C175.841 174.87 175.902 174.87 175.978 174.87H175.994C176.009 174.87 176.024 174.87 176.039 174.87C176.07 174.87 176.1 174.87 176.131 174.87C176.131 174.87 176.131 174.87 176.146 174.87C176.207 174.87 176.268 174.87 176.329 174.855C177.108 174.779 177.855 174.549 178.511 174.198C178.176 173.617 177.748 173.174 177.352 172.807Z" fill="#699DEE"/>
<path d="M226.793 202.766C226.793 204.111 227.251 205.334 227.998 206.328C228.242 206.649 228.532 206.954 228.853 207.214C229.86 208.07 231.188 208.59 232.622 208.59C233.919 208.59 235.125 208.162 236.101 207.428C236.528 207.107 236.91 206.725 237.23 206.312C237.993 205.334 238.436 204.096 238.436 202.751C238.436 199.526 235.827 196.912 232.607 196.912C229.387 196.912 226.793 199.541 226.793 202.766Z" fill="white"/>
<path d="M235.582 206.068C235.582 206.053 235.567 206.037 235.552 206.022C235.521 205.991 235.491 205.961 235.46 205.93C235.384 205.869 235.292 205.823 235.17 205.777C235.17 205.777 235.17 205.777 235.155 205.777C234.652 205.563 233.98 205.487 233.98 205.487C233.797 205.456 233.644 205.441 233.568 205.426C233.37 205.273 233.11 204.646 233.065 203.683C233.065 203.683 233.278 203.179 233.568 203.332C234.026 203.576 234.88 202.583 234.606 201.268C234.575 201.131 234.545 200.993 234.499 200.886C234.59 200.932 234.697 200.963 234.804 200.963C235.064 200.963 235.46 200.29 235.521 200.076C235.582 199.847 235.521 199.113 235.155 198.899C234.804 198.685 234.255 198.93 234.224 198.945C234.407 198.7 235.018 198.746 235.125 198.761C233.705 198.471 233.4 199.388 233.385 199.465C232.485 198.639 231.096 200.061 230.76 200.443C230.73 200.458 230.715 200.489 230.684 200.504C230.608 200.55 230.516 200.626 230.425 200.733C230.241 200.947 230.196 201.222 230.196 201.498C230.196 201.971 230.379 202.399 230.379 202.399C230.455 203.194 230.684 204.173 231.05 204.203C231.05 204.203 231.172 204.203 231.371 204.188C231.371 204.203 231.371 204.203 231.371 204.218C231.371 204.356 231.386 204.509 231.386 204.646V204.738C231.386 205.135 231.355 205.518 231.279 205.563C231.249 205.563 231.218 205.563 231.203 205.563C231.172 205.563 231.096 205.579 231.096 205.579C230.776 205.625 230.547 205.655 230.394 205.686C230.074 205.732 229.997 205.777 229.921 205.839C229.906 205.854 229.891 205.869 229.86 205.9C229.631 206.083 229.204 206.481 228.822 207.26C229.845 208.116 231.157 208.636 232.591 208.636C233.889 208.636 235.094 208.208 236.071 207.474C235.918 206.878 235.75 206.389 235.582 206.068Z" fill="#F99746"/>
<path d="M226.793 85.5421C226.793 86.8872 227.251 88.11 227.998 89.1036C228.242 89.4246 228.532 89.7303 228.853 89.9901C229.86 90.8461 231.188 91.3658 232.622 91.3658C233.919 91.3658 235.125 90.9378 236.101 90.2041C236.528 89.8831 236.91 89.501 237.23 89.0883C237.993 88.11 238.436 86.8719 238.436 85.5268C238.436 82.3016 235.827 79.6877 232.607 79.6877C229.387 79.6877 226.793 82.3168 226.793 85.5421Z" fill="white"/>
<path d="M235.582 88.8437C235.582 88.8284 235.567 88.8131 235.552 88.7978C235.521 88.7672 235.491 88.7367 235.46 88.7061C235.384 88.6449 235.292 88.5991 235.17 88.5532C235.17 88.5532 235.17 88.5532 235.155 88.5532C234.652 88.3392 233.98 88.2628 233.98 88.2628C233.797 88.2322 233.644 88.2169 233.568 88.2017C233.522 88.1711 233.477 88.0947 233.415 88.0182C233.248 87.7278 233.095 87.1928 233.065 86.4744C233.065 86.4744 233.278 85.97 233.568 86.1228C234.026 86.3674 234.88 85.3739 234.606 84.0593C234.575 83.9217 234.545 83.7842 234.499 83.6772C234.59 83.723 234.697 83.7536 234.804 83.7536C235.064 83.7536 235.46 83.081 235.521 82.867C235.582 82.6378 235.521 81.9041 235.155 81.6901C234.804 81.4761 234.255 81.7206 234.224 81.7359C234.407 81.4913 235.018 81.5372 235.125 81.5525C233.705 81.2621 233.4 82.1792 233.385 82.2556C232.485 81.4302 231.096 82.8518 230.76 83.2339C230.73 83.2492 230.715 83.2797 230.684 83.295C230.608 83.3409 230.516 83.4173 230.425 83.5243C230.241 83.7383 230.196 84.0134 230.196 84.2886C230.196 84.7624 230.379 85.1904 230.379 85.1904C230.455 85.9853 230.684 86.9635 231.05 86.9941C231.05 86.9941 231.172 86.9941 231.371 86.9788C231.371 86.9941 231.371 86.9941 231.371 87.0094C231.371 87.147 231.386 87.2998 231.386 87.4374V87.5291C231.386 87.9265 231.355 88.3087 231.279 88.3545C231.249 88.3545 231.218 88.3545 231.203 88.3545C231.172 88.3545 231.096 88.3698 231.096 88.3698C230.776 88.4157 230.547 88.4462 230.394 88.4768C230.074 88.5379 229.997 88.5685 229.921 88.6297C229.906 88.6449 229.891 88.6602 229.86 88.6908C229.631 88.8589 229.204 89.2716 228.822 90.0512C228.883 90.0971 228.929 90.1429 228.99 90.1888C229.005 90.1888 229.005 90.2041 229.021 90.2041C229.066 90.2346 229.112 90.2652 229.158 90.2958C229.189 90.3263 229.219 90.3416 229.25 90.3722C229.28 90.3875 229.311 90.4181 229.341 90.4333C229.387 90.4639 229.433 90.4945 229.478 90.5251C229.509 90.5403 229.54 90.5709 229.57 90.5862C229.616 90.6168 229.646 90.6321 229.692 90.6626C229.738 90.6932 229.784 90.7085 229.829 90.7391C229.829 90.7391 229.829 90.7391 229.845 90.7391L229.86 90.7543C229.891 90.7696 229.936 90.7849 229.967 90.8155C229.982 90.8155 229.997 90.8308 229.997 90.8308C230.013 90.846 230.043 90.846 230.058 90.8613C230.074 90.8766 230.104 90.8766 230.119 90.8919C230.165 90.9072 230.211 90.9378 230.257 90.953C230.303 90.9683 230.348 90.9989 230.394 91.0142C230.409 91.0295 230.44 91.0295 230.455 91.0448C230.47 91.0448 230.501 91.06 230.516 91.0753C230.562 91.0906 230.608 91.1059 230.653 91.1212C230.699 91.1365 230.745 91.1518 230.791 91.167C230.837 91.1823 230.867 91.1976 230.913 91.1976H230.928C230.959 91.1976 230.974 91.2129 231.004 91.2129C231.142 91.2435 231.279 91.2893 231.432 91.3046C231.493 91.3199 231.554 91.3352 231.615 91.3352C231.63 91.3352 231.645 91.3352 231.661 91.3352H231.676C231.722 91.3352 231.752 91.3505 231.798 91.3505C231.813 91.3505 231.813 91.3505 231.828 91.3505H231.844C231.874 91.3505 231.92 91.3658 231.951 91.3658H231.966C231.981 91.3658 231.996 91.3658 231.996 91.3658C232.057 91.3658 232.134 91.381 232.195 91.381H232.21C232.225 91.381 232.256 91.381 232.271 91.381C232.286 91.381 232.302 91.381 232.317 91.381C232.378 91.381 232.454 91.381 232.515 91.381C233.812 91.381 235.018 90.953 235.994 90.2193C235.918 89.6538 235.75 89.1646 235.582 88.8437Z" fill="#F99746"/>
<path d="M305.807 317.132L284.84 328.015H270.878C267.506 325.753 250.033 313.815 242.8 304.904C241.274 303.024 235.659 286.745 231.355 273.553C231.935 275.311 243.96 300.96 247.378 303.88C250.796 306.799 268.787 323.781 273.747 323.598C278.553 323.43 304.159 317.53 305.746 317.163C305.746 317.132 305.777 317.132 305.807 317.132Z" fill="#EFA26F"/>
<path d="M348 328H272.389C276.173 326.502 290.685 320.953 305.731 317.147C305.761 317.147 305.777 317.132 305.807 317.132C318.717 313.861 332.023 311.874 339.241 314.854L339.287 314.931L348 328Z" fill="#D2E3FC"/>
<path d="M226.198 227.972C227.48 227.498 229.265 227.192 230.135 228.644C231.493 230.907 226.457 250.9 225.831 253.407L226.198 227.972Z" fill="#EFA26F"/>
<path d="M226.579 217.226L226.152 229.317C226.152 229.317 228.685 229.73 230.135 228.645C231.584 227.559 230.806 217.073 226.579 217.226Z" fill="#FFC197"/>
<path d="M175.795 287.234C168.532 288.732 152.875 283.015 152.875 283.015L155.408 258.573L137.707 278.872C128.704 275.51 114.619 266.751 106.257 261.31C127.697 258.971 143.704 237.77 143.704 237.77C158.567 245.841 175.353 250.549 175.353 250.549C175.337 265.054 175.795 287.234 175.795 287.234Z" fill="#CBE1FD"/>
<path d="M125.942 265.039C125.957 263.404 127.285 262.104 128.918 262.12C130.55 262.135 131.847 263.465 131.832 265.1C131.817 266.736 130.489 268.035 128.857 268.02C127.224 267.989 125.927 266.66 125.942 265.039Z" fill="#F99746"/>
<path d="M31.2432 68.7183C32.0244 68.7183 32.9619 68.5474 34.0557 68.2056V71.5308C32.9424 72.0288 31.5752 72.2778 29.9541 72.2778C28.167 72.2778 26.8633 71.8286 26.043 70.9302C25.2324 70.022 24.8271 68.6646 24.8271 66.8579V58.9624H22.6885V57.0728L25.1494 55.5786L26.4385 52.1216H29.2949V55.6079H33.8799V58.9624H29.2949V66.8579C29.2949 67.4927 29.4707 67.9614 29.8223 68.2642C30.1836 68.5669 30.6572 68.7183 31.2432 68.7183ZM35.9898 64.895V61.2329H43.8561V64.895H35.9898ZM47.5187 71.9849V50.5688H52.0598V68.2349H60.7463V71.9849H47.5187ZM63.3396 51.3745C63.3396 49.9194 64.1502 49.1919 65.7713 49.1919C67.3924 49.1919 68.2029 49.9194 68.2029 51.3745C68.2029 52.0679 67.9979 52.6099 67.5877 53.0005C67.1873 53.3813 66.5818 53.5718 65.7713 53.5718C64.1502 53.5718 63.3396 52.8394 63.3396 51.3745ZM67.9979 71.9849H63.5301V55.6079H67.9979V71.9849ZM87.2172 71.9849H82.7494V62.4194C82.7494 61.2378 82.5395 60.354 82.1195 59.7681C81.6996 59.1724 81.0307 58.8745 80.1127 58.8745C78.8627 58.8745 77.9594 59.2944 77.4027 60.1343C76.8461 60.9644 76.5678 62.3462 76.5678 64.2798V71.9849H72.1V55.6079H75.5131L76.1137 57.7026H76.3627C76.8607 56.9116 77.5443 56.3159 78.4135 55.9155C79.2924 55.5054 80.2885 55.3003 81.4018 55.3003C83.3061 55.3003 84.7514 55.8179 85.7377 56.853C86.724 57.8784 87.2172 59.3628 87.2172 61.3062V71.9849ZM95.5088 63.0786L97.457 60.5884L102.042 55.6079H107.081L100.577 62.7124L107.477 71.9849H102.32L97.6035 65.3491L95.6846 66.8872V71.9849H91.2168V49.1919H95.6846V59.3579L95.4502 63.0786H95.5088Z" fill="black"/>
<path d="M24.672 32.8677H28.848V31.8277H24.672V29.1077H29.072V28.0357H23.408V37.1877H24.352C26.672 37.1877 28.048 37.1397 29.712 36.8197L29.584 35.7317C28.048 36.0357 26.768 36.0997 24.672 36.0997V32.8677ZM33.792 26.3877V32.1477H31.888V26.7077H30.64V40.0357H31.888V33.2197H33.792V40.7397H35.04V26.3877H33.792ZM44.2867 31.9557C44.6547 30.2597 44.6547 28.9637 44.6547 28.0517V27.2837H37.5507V28.3397H43.3748C43.3748 29.2037 43.3428 30.3237 43.0068 31.8437L44.2867 31.9557ZM45.6628 32.8517C44.1908 33.0437 42.5747 33.1397 41.0068 33.2037V30.4037H39.7108V33.2357C38.6387 33.2677 37.5827 33.2677 36.6707 33.2677L36.8147 34.3557C39.3907 34.3557 42.7828 34.2757 45.7587 33.8117L45.6628 32.8517ZM43.3108 39.6677C41.1828 39.6677 39.8707 39.0917 39.8707 38.0997C39.8707 37.1237 41.1828 36.5477 43.3108 36.5477C45.4388 36.5477 46.7508 37.1237 46.7508 38.0997C46.7508 39.0917 45.4388 39.6677 43.3108 39.6677ZM43.3108 35.5237C40.3668 35.5237 38.5427 36.4677 38.5427 38.0997C38.5427 39.7637 40.3668 40.7077 43.3108 40.7077C46.2548 40.7077 48.0788 39.7637 48.0788 38.0997C48.0788 36.4677 46.2548 35.5237 43.3108 35.5237ZM47.9348 30.3077V26.3717H46.6228V35.3317H47.9348V31.3957H49.9828V30.3077H47.9348ZM60.6375 29.3477C60.6375 31.1237 60.6375 33.2677 60.0615 36.1957L61.3735 36.3397C61.9335 33.2357 61.9335 31.1717 61.9335 29.3477V27.9237H61.3255V27.9077H52.0935V28.9797H60.6375V29.3477ZM50.7015 37.5557V38.6437H63.6775V37.5557H50.7015ZM74.6522 29.0117H66.2682V32.3397H76.2522V31.3317H67.5642V29.9877H75.9482V26.6917H66.2362V27.6997H74.6522V29.0117ZM74.6522 39.5237H67.6282V38.0357H74.6522V39.5237ZM74.6522 37.0437H67.6282V35.4597H66.3162V40.5477H75.9482V35.4597H74.6522V37.0437ZM64.5882 33.4917V34.5477H70.4442V36.3237H71.7562V34.5477H77.6122V33.4917H64.5882Z" fill="black"/>
</g>
</svg>
