<svg width="22" height="22" viewBox="0 0 22 22" fill="none" xmlns="http://www.w3.org/2000/svg">
<path fill-rule="evenodd" clip-rule="evenodd" d="M15.0266 13.1531C14.6812 12.8077 14.6424 12.2662 14.8817 11.8404C16.5839 8.81186 16.1464 4.90528 13.5692 2.3281C10.465 -0.776035 5.43224 -0.776035 2.3281 2.3281C-0.776035 5.43224 -0.776035 10.465 2.3281 13.5692C4.90528 16.1464 8.81186 16.5839 11.8404 14.8817C12.2662 14.6424 12.8077 14.6812 13.1531 15.0266L19.4194 21.2929C19.8099 21.6834 20.4431 21.6834 20.8336 21.2929L21.2929 20.8336C21.6834 20.4431 21.6834 19.8099 21.2929 19.4194L15.0266 13.1531ZM11.6957 4.20162C13.7651 6.27104 13.7651 9.62625 11.6957 11.6957C9.62625 13.7651 6.27105 13.7651 4.20162 11.6957C2.13219 9.62625 2.13219 6.27104 4.20162 4.20162C6.27105 2.13219 9.62625 2.13219 11.6957 4.20162Z" fill="#B6C3FF"/>
</svg>
