<svg width="14" height="14" viewBox="0 0 14 14" fill="none" xmlns="http://www.w3.org/2000/svg">
<path fill-rule="evenodd" clip-rule="evenodd" d="M6.61038 12.2348L3.58069 13.8993C3.17145 14.1242 2.66529 13.9597 2.45014 13.5321C2.36447 13.3618 2.3349 13.1667 2.36603 12.9771L2.94464 9.45164C2.99122 9.16785 2.90119 8.87828 2.70388 8.6773L0.252811 6.18055C-0.0782695 5.8433 -0.085044 5.28944 0.23768 4.94345C0.36619 4.80568 0.534577 4.71602 0.716773 4.68836L4.10407 4.174C4.37674 4.13259 4.61245 3.95363 4.73439 3.69543L6.24924 0.487858C6.45386 0.0545928 6.95584 -0.123295 7.37044 0.0905339C7.53554 0.175682 7.66917 0.315329 7.75065 0.487858L9.2655 3.69543C9.38744 3.95363 9.62315 4.13259 9.89582 4.174L13.2831 4.68836C13.7407 4.75783 14.0577 5.20176 13.9912 5.6799C13.9647 5.87029 13.8789 6.04626 13.7471 6.18055L11.296 8.6773C11.0987 8.87828 11.0087 9.16785 11.0552 9.45164L11.6339 12.9771C11.712 13.4533 11.406 13.9056 10.9503 13.9872C10.7688 14.0198 10.5822 13.9889 10.4192 13.8993L7.38951 12.2348C7.14562 12.1008 6.85427 12.1008 6.61038 12.2348Z" fill="#DADADA"/>
</svg>
