<svg width="16" height="16" viewBox="0 0 16 16" fill="none" xmlns="http://www.w3.org/2000/svg">
<path fill-rule="evenodd" clip-rule="evenodd" d="M7.55472 13.9827L4.09222 15.885C3.62452 16.1419 3.04604 15.954 2.80016 15.4652C2.70225 15.2706 2.66846 15.0477 2.70403 14.831L3.36531 10.8019C3.41854 10.4775 3.31564 10.1466 3.09015 9.91691L0.288927 7.06349C-0.0894508 6.67806 -0.0971931 6.04507 0.271634 5.64966C0.418503 5.49221 0.610945 5.38974 0.819169 5.35812L4.69037 4.77028C5.00199 4.72296 5.27137 4.51843 5.41074 4.22335L7.14199 0.557552C7.37584 0.0623918 7.94953 -0.140909 8.42336 0.103467C8.61204 0.200779 8.76477 0.360376 8.85789 0.557552L10.5891 4.22335C10.7285 4.51843 10.9979 4.72296 11.3095 4.77028L15.1807 5.35812C15.7036 5.43752 16.0659 5.94487 15.9899 6.49131C15.9597 6.70891 15.8616 6.91001 15.7109 7.06349L12.9097 9.91691C12.6842 10.1466 12.5813 10.4775 12.6346 10.8019L13.2958 14.831C13.3852 15.3752 13.0354 15.8921 12.5146 15.9854C12.3072 16.0226 12.0939 15.9873 11.9077 15.885L8.44515 13.9827C8.16643 13.8295 7.83345 13.8295 7.55472 13.9827Z" fill="#373F54"/>
</svg>
