<svg width="32" height="32" viewBox="0 0 32 32" fill="none" xmlns="http://www.w3.org/2000/svg">
<path d="M15.5 5C12.2835 5 9.66667 7.59716 9.66667 10.7895C9.66667 13.9818 12.2835 16.5789 15.5 16.5789C18.7165 16.5789 21.3333 13.9818 21.3333 10.7895C21.3333 7.59716 18.7165 5 15.5 5Z" fill="#3554DB"/>
<path d="M25 27C25.5523 27 26 26.5523 26 26V25.8421C26 21.3738 22.3355 17.7368 17.8333 17.7368H13.1667C8.66333 17.7368 5 21.3738 5 25.8421V26C5 26.5523 5.44772 27 6 27H7.33333H23.6667H25Z" fill="#3554DB"/>
</svg>
