<svg width="32" height="32" viewBox="0 0 32 32" fill="none" xmlns="http://www.w3.org/2000/svg">
<rect width="32" height="32" fill="#191F2C"/>
<path d="M15.5 5C12.2835 5 9.66667 7.59716 9.66667 10.7895C9.66667 13.9818 12.2835 16.5789 15.5 16.5789C18.7165 16.5789 21.3333 13.9818 21.3333 10.7895C21.3333 7.59716 18.7165 5 15.5 5ZM15.5 14.2632C13.5703 14.2632 12 12.7046 12 10.7895C12 8.87432 13.5703 7.31579 15.5 7.31579C17.4297 7.31579 19 8.87432 19 10.7895C19 12.7046 17.4297 14.2632 15.5 14.2632ZM25 27C25.5523 27 26 26.5523 26 26V25.8421C26 21.3738 22.3355 17.7368 17.8333 17.7368H13.1667C8.66333 17.7368 5 21.3738 5 25.8421V26C5 26.5523 5.44772 27 6 27H6.33333C6.88562 27 7.33333 26.5523 7.33333 26V25.8421C7.33333 22.6498 9.95017 20.0526 13.1667 20.0526H17.8333C21.0498 20.0526 23.6667 22.6498 23.6667 25.8421V26C23.6667 26.5523 24.1144 27 24.6667 27H25Z" fill="#89909F"/>
</svg>
