<svg width="32" height="32" viewBox="0 0 32 32" fill="none" xmlns="http://www.w3.org/2000/svg">
<rect width="32" height="32" fill="#191F2C"/>
<path fill-rule="evenodd" clip-rule="evenodd" d="M23.1923 21.2323C22.8456 21.0659 22.625 20.7154 22.625 20.3308V14.69C22.625 11.4658 21.4861 8.72531 18.642 7.70761C18.2024 7.55034 17.875 7.15395 17.875 6.68711V6C17.875 5.44772 17.4273 5 16.875 5H14.125C13.5727 5 13.125 5.44772 13.125 6V6.68773C13.125 7.15428 12.798 7.55051 12.3588 7.70799C9.52352 8.72469 8.375 11.4559 8.375 14.69V20.3308C8.375 20.7154 8.15445 21.0659 7.80773 21.2323L6.56727 21.8277C6.22055 21.9941 6 22.3446 6 22.7292V23.38C6 23.9323 6.44771 24.38 7 24.38H24C24.5523 24.38 25 23.9323 25 23.38V22.7292C25 22.3446 24.7794 21.9941 24.4327 21.8277L23.1923 21.2323ZM15.5 27.8C16.4473 27.8 17.2697 27.2604 17.6501 26.4856C17.8935 25.9898 17.4273 25.52 16.875 25.52H14.125C13.5727 25.52 13.1065 25.9898 13.3499 26.4856C13.7303 27.2604 14.5527 27.8 15.5 27.8ZM10.75 21.1C10.75 21.6523 11.1977 22.1 11.75 22.1H19.25C19.8023 22.1 20.25 21.6523 20.25 21.1V14.69C20.25 11.8628 19.0625 9.275 15.5 9.275C11.9375 9.275 10.75 11.8628 10.75 14.69V21.1Z" fill="#89909F"/>
</svg>
