<svg width="32" height="32" viewBox="0 0 32 32" fill="none" xmlns="http://www.w3.org/2000/svg">
<path fill-rule="evenodd" clip-rule="evenodd" d="M20.0266 18.1531C19.6812 17.8077 19.6424 17.2662 19.8817 16.8404C21.5839 13.8119 21.1464 9.90528 18.5692 7.3281C15.465 4.22396 10.4322 4.22397 7.3281 7.3281C4.22397 10.4322 4.22397 15.465 7.3281 18.5692C9.90528 21.1464 13.8119 21.5839 16.8404 19.8817C17.2662 19.6424 17.8077 19.6812 18.1531 20.0266L24.4194 26.2929C24.8099 26.6834 25.4431 26.6834 25.8336 26.2929L26.2929 25.8336C26.6834 25.4431 26.6834 24.8099 26.2929 24.4194L20.0266 18.1531ZM16.6957 9.20162C18.7651 11.271 18.7651 14.6262 16.6957 16.6957C14.6262 18.7651 11.271 18.7651 9.20162 16.6957C7.13219 14.6262 7.13219 11.271 9.20162 9.20162C11.271 7.13219 14.6262 7.13219 16.6957 9.20162Z" fill="#101010"/>
</svg>
