<svg width="32" height="32" viewBox="0 0 32 32" fill="none" xmlns="http://www.w3.org/2000/svg">
<path fill-rule="evenodd" clip-rule="evenodd" d="M16 20.4C14.5631 20.4 13.3407 21.3183 12.8877 22.6001L6.1 22.6C5.49249 22.6 5 23.0925 5 23.7C5 24.3075 5.49249 24.8 6.1 24.8L12.8881 24.801C13.3414 26.0822 14.5635 27 16 27C17.4365 27 18.6586 26.0822 19.1119 24.801L25.9 24.8C26.5075 24.8 27 24.3075 27 23.7C27 23.0925 26.5075 22.6 25.9 22.6L19.1123 22.6001C18.6593 21.3183 17.4369 20.4 16 20.4ZM16 22.6C16.6075 22.6 17.1 23.0925 17.1 23.7C17.1 24.3075 16.6075 24.8 16 24.8C15.3925 24.8 14.9 24.3075 14.9 23.7C14.9 23.0925 15.3925 22.6 16 22.6ZM8.3 12.7C6.47746 12.7 5 14.1775 5 16C5 17.8226 6.47746 19.3 8.3 19.3C9.73647 19.3 10.9586 18.3822 11.4119 17.101L25.9 17.1C26.5075 17.1 27 16.6075 27 16C27 15.3925 26.5075 14.9 25.9 14.9L11.4123 14.9001C10.9593 13.6184 9.73688 12.7 8.3 12.7ZM8.29999 14.9C8.9075 14.9 9.39999 15.3925 9.39999 16C9.39999 16.6075 8.9075 17.1 8.29999 17.1C7.69247 17.1 7.19999 16.6075 7.19999 16C7.19999 15.3925 7.69247 14.9 8.29999 14.9ZM23.7 5C22.257 5 21.0304 5.92615 20.582 7.21645C20.5232 7.20516 20.4622 7.2 20.4 7.2H6.1C5.49249 7.2 5 7.69249 5 8.3C5 8.90751 5.49249 9.4 6.1 9.4H20.4C20.4622 9.4 20.5232 9.39484 20.5826 9.38491C21.0304 10.6738 22.257 11.6 23.7 11.6C25.5225 11.6 27 10.1225 27 8.3C27 6.47746 25.5225 5 23.7 5ZM23.6999 7.20002C24.3075 7.20002 24.7999 7.69251 24.7999 8.30002C24.7999 8.90754 24.3075 9.40002 23.6999 9.40002C23.0924 9.40002 22.5999 8.90754 22.5999 8.30002C22.5999 7.69251 23.0924 7.20002 23.6999 7.20002Z" fill="#101010"/>
</svg>
