<svg width="30" height="30" viewBox="0 0 30 30" fill="none" xmlns="http://www.w3.org/2000/svg">
<path fill-rule="evenodd" clip-rule="evenodd" d="M14.2208 25.4697L8.16139 28.7987C7.34291 29.2483 6.33058 28.9195 5.90028 28.0642C5.72893 27.7236 5.66981 27.3335 5.73205 26.9542L6.88929 19.9033C6.98244 19.3357 6.80238 18.7566 6.40776 18.3546L1.50562 13.3611C0.843461 12.6866 0.829912 11.5789 1.47536 10.8869C1.73238 10.6114 2.06915 10.432 2.43355 10.3767L9.20814 9.34799C9.75348 9.26519 10.2249 8.90726 10.4688 8.39085L13.4985 1.97572C13.9077 1.10919 14.9117 0.75341 15.7409 1.18107C16.0711 1.35136 16.3383 1.63066 16.5013 1.97572L19.531 8.39085C19.7749 8.90726 20.2463 9.26519 20.7916 9.34799L27.5662 10.3767C28.4813 10.5157 29.1154 11.4035 28.9824 12.3598C28.9294 12.7406 28.7578 13.0925 28.4942 13.3611L23.592 18.3546C23.1974 18.7566 23.0173 19.3357 23.1105 19.9033L24.2677 26.9542C24.424 27.9066 23.8119 28.8111 22.9006 28.9745C22.5376 29.0395 22.1643 28.9777 21.8384 28.7987L15.779 25.4697C15.2912 25.2017 14.7085 25.2017 14.2208 25.4697Z" stroke="#5876E8"/>
</svg>
