<svg width="1024" height="1024" viewBox="0 0 1024 1024" fill="none" xmlns="http://www.w3.org/2000/svg">
<rect width="1024" height="1024" fill="white"/>
<path d="M201.945 549.867C208.195 549.867 215.695 548.5 224.445 545.766V572.367C215.539 576.352 204.602 578.344 191.633 578.344C177.336 578.344 166.906 574.75 160.344 567.562C153.859 560.297 150.617 549.438 150.617 534.984V471.82H133.508V456.703L153.195 444.75L163.508 417.094H186.359V444.984H223.039V471.82H186.359V534.984C186.359 540.062 187.766 543.812 190.578 546.234C193.469 548.656 197.258 549.867 201.945 549.867ZM238.808 559.242C238.808 552.68 240.566 547.719 244.081 544.359C247.597 541 252.714 539.32 259.433 539.32C265.917 539.32 270.917 541.039 274.433 544.477C278.027 547.914 279.823 552.836 279.823 559.242C279.823 565.414 278.027 570.297 274.433 573.891C270.839 577.406 265.839 579.164 259.433 579.164C252.87 579.164 247.792 577.445 244.198 574.008C240.605 570.492 238.808 565.57 238.808 559.242ZM409.03 528.422C409.03 543.891 403.444 556.078 392.272 564.984C381.178 573.891 365.709 578.344 345.866 578.344C327.584 578.344 311.413 574.906 297.35 568.031V534.281C308.913 539.438 318.678 543.07 326.647 545.18C334.694 547.289 342.038 548.344 348.678 548.344C356.647 548.344 362.741 546.82 366.959 543.773C371.256 540.727 373.405 536.195 373.405 530.18C373.405 526.82 372.467 523.852 370.592 521.273C368.717 518.617 365.944 516.078 362.272 513.656C358.678 511.234 351.295 507.367 340.123 502.055C329.655 497.133 321.803 492.406 316.569 487.875C311.334 483.344 307.155 478.07 304.03 472.055C300.905 466.039 299.342 459.008 299.342 450.961C299.342 435.805 304.459 423.891 314.694 415.219C325.006 406.547 339.225 402.211 357.35 402.211C366.256 402.211 374.733 403.266 382.78 405.375C390.905 407.484 399.381 410.453 408.209 414.281L396.491 442.523C387.35 438.773 379.772 436.156 373.756 434.672C367.819 433.188 361.959 432.445 356.178 432.445C349.303 432.445 344.03 434.047 340.358 437.25C336.686 440.453 334.85 444.633 334.85 449.789C334.85 452.992 335.592 455.805 337.077 458.227C338.561 460.57 340.905 462.875 344.108 465.141C347.389 467.328 355.084 471.312 367.194 477.094C383.209 484.75 394.186 492.445 400.123 500.18C406.061 507.836 409.03 517.25 409.03 528.422ZM485.267 549.867C491.517 549.867 499.017 548.5 507.767 545.766V572.367C498.861 576.352 487.923 578.344 474.955 578.344C460.658 578.344 450.228 574.75 443.666 567.562C437.181 560.297 433.939 549.438 433.939 534.984V471.82H416.83V456.703L436.517 444.75L446.83 417.094H469.681V444.984H506.361V471.82H469.681V534.984C469.681 540.062 471.087 543.812 473.9 546.234C476.791 548.656 480.58 549.867 485.267 549.867ZM555.645 510.258C555.645 523.227 557.755 533.031 561.973 539.672C566.27 546.312 573.223 549.633 582.833 549.633C592.364 549.633 599.2 546.352 603.341 539.789C607.559 533.148 609.669 523.305 609.669 510.258C609.669 497.289 607.559 487.562 603.341 481.078C599.122 474.594 592.208 471.352 582.598 471.352C573.067 471.352 566.192 474.594 561.973 481.078C557.755 487.484 555.645 497.211 555.645 510.258ZM646.231 510.258C646.231 531.586 640.606 548.266 629.356 560.297C618.106 572.328 602.442 578.344 582.364 578.344C569.786 578.344 558.692 575.609 549.083 570.141C539.473 564.594 532.091 556.664 526.934 546.352C521.778 536.039 519.2 524.008 519.2 510.258C519.2 488.852 524.786 472.211 535.958 460.336C547.13 448.461 562.833 442.523 583.067 442.523C595.645 442.523 606.739 445.258 616.348 450.727C625.958 456.195 633.341 464.047 638.497 474.281C643.653 484.516 646.231 496.508 646.231 510.258ZM741.688 442.523C746.531 442.523 750.555 442.875 753.758 443.578L751.062 477.094C748.172 476.312 744.656 475.922 740.516 475.922C729.109 475.922 720.203 478.852 713.797 484.711C707.469 490.57 704.305 498.773 704.305 509.32V576H668.562V444.984H695.633L700.906 467.016H702.664C706.727 459.672 712.195 453.773 719.07 449.32C726.023 444.789 733.562 442.523 741.688 442.523ZM824.605 467.953C817.027 467.953 811.089 470.375 806.792 475.219C802.495 479.984 800.034 486.781 799.409 495.609H849.566C849.409 486.781 847.105 479.984 842.652 475.219C838.198 470.375 832.183 467.953 824.605 467.953ZM829.644 578.344C808.55 578.344 792.066 572.523 780.191 560.883C768.316 549.242 762.378 532.758 762.378 511.43C762.378 489.477 767.847 472.523 778.784 460.57C789.8 448.539 804.995 442.523 824.37 442.523C842.886 442.523 857.3 447.797 867.612 458.344C877.925 468.891 883.081 483.461 883.081 502.055V519.398H798.589C798.98 529.555 801.987 537.484 807.612 543.188C813.237 548.891 821.128 551.742 831.284 551.742C839.175 551.742 846.636 550.922 853.667 549.281C860.698 547.641 868.042 545.023 875.698 541.43V569.086C869.448 572.211 862.769 574.516 855.659 576C848.55 577.562 839.878 578.344 829.644 578.344Z" fill="#3554DB"/>
</svg>
